<?xml version="1.0" encoding="UTF-8" standalone="no"?>
<!DOCTYPE svg PUBLIC "-//W3C//DTD SVG 1.1//EN" "http://www.w3.org/Graphics/SVG/1.1/DTD/svg11.dtd">
<svg width="100%" height="100%" viewBox="0 0 1440 900" version="1.1" xmlns="http://www.w3.org/2000/svg" xmlns:xlink="http://www.w3.org/1999/xlink" xml:space="preserve" xmlns:serif="http://www.serif.com/" style="fill-rule:evenodd;clip-rule:evenodd;stroke-linejoin:round;stroke-miterlimit:2;">
    <g transform="matrix(0.735939,0,0,0.735939,-1544.52,368.383)">
        <g id="Trimmen">
            <path d="M2510,355C2525,355 2538,342 2538,327C2538,312 2525,299 2514,299C2493,299 2489,317 2475,317C2462,318 2458,313 2458,308C2458,295 2506,286 2560,286C2584,285 2578,266 2570,247C2562,229 2557,222 2538,230C2440,274 2354,283 2272,285C2247,286 2234,287 2234,280C2234,274 2243,277 2272,277C2283,277 2296,263 2313,260C2332,256 2353,269 2364,269C2379,269 2391,257 2391,242C2391,226 2379,214 2364,214C2348,214 2336,226 2336,242C2336,251 2326,256 2311,255C2297,254 2270,239 2248,239C2233,239 2227,246 2227,272C2227,305 2238,314 2267,306C2372,276 2493,281 2550,257C2560,253 2564,250 2565,254C2567,258 2561,262 2546,267C2476,291 2452,291 2452,309C2452,315 2459,319 2468,321C2479,323 2486,326 2488,335C2490,342 2495,355 2510,355ZM2581,171L2608,139C2615,131 2610,124 2604,119C2580,99 2532,86 2489,111C2472,121 2466,103 2447,103C2432,103 2421,115 2421,129C2421,144 2432,155 2447,155C2459,155 2468,147 2471,136C2474,124 2478,119 2489,117C2507,114 2557,139 2573,153C2581,159 2583,165 2578,170C2451,316 2313,73 2383,-27L2428,-91L2461,-135L2269,-135C2256,-135 2254,-135 2247,-126L2227,-100C2224,-96 2226,-91 2231,-91L2370,-91C2396,-91 2414,-77 2379,-29C2360,-1 2349,6 2337,0C2298,-19 2209,61 2209,109C2209,124 2220,130 2230,118L2291,50L2289,49L2255,84C2252,87 2248,92 2243,87C2229,73 2262,43 2292,43C2317,43 2337,55 2353,96C2394,205 2493,275 2581,171ZM2434,13C2442,13 2448,7 2448,-1C2448,-9 2442,-15 2434,-15C2426,-15 2420,-9 2420,-1C2420,7 2426,13 2434,13ZM2801,324C2896,324 2927,258 2927,202C2927,162 2904,123 2904,72L2904,-59C2904,-74 2871,-83 2871,-70L2871,90C2871,151 2921,172 2921,211C2921,245 2899,313 2829,313C2698,313 2577,131 2697,-11C2729,-49 2739,-55 2760,-57C2774,-58 2785,-71 2783,-85C2782,-99 2770,-110 2755,-108C2740,-106 2731,-95 2732,-79C2734,-61 2724,-51 2695,-14C2548,174 2645,324 2801,324ZM2418,94C2428,94 2436,84 2441,74C2444,68 2458,64 2477,60C2522,50 2567,52 2598,72C2604,76 2612,75 2617,69L2634,48C2642,39 2638,35 2625,31C2577,16 2525,29 2473,52C2461,57 2457,55 2466,49C2534,3 2663,-206 2673,-231C2675,-237 2679,-240 2683,-240C2687,-240 2685,-228 2681,-219C2650,-148 2619,-105 2564,-29C2557,-19 2555,-15 2555,-9C2555,1 2570,6 2603,-24C2677,-93 2705,-159 2735,-148L2925,-80C2969,-64 3036,-92 3071,-112C3081,-118 3088,-111 3098,-114C3110,-118 3107,-131 3121,-136C3138,-143 3146,-144 3145,-148C3144,-152 3138,-147 3119,-140C3105,-135 3099,-144 3093,-144C3084,-144 3078,-136 3078,-130C3078,-125 3078,-119 3068,-113C3047,-102 3011,-91 2983,-101L2785,-173C2717,-198 2675,-96 2598,-25C2569,3 2557,-2 2557,-9C2557,-13 2560,-19 2567,-27C2630,-105 2672,-140 2713,-217C2724,-238 2697,-243 2687,-243C2667,-243 2637,-239 2629,-219C2607,-160 2524,-1 2473,37C2444,58 2433,58 2426,57C2410,54 2398,64 2398,74C2398,85 2407,94 2418,94ZM3002,102L3107,60C3113,58 3116,53 3118,51L3130,35C3133,31 3131,27 3126,29L3020,72C3014,74 3011,76 3007,82L2998,96C2995,101 2996,104 3002,102ZM3001,60L3106,18C3112,16 3114,14 3116,11L3131,-8C3134,-12 3132,-16 3127,-14L3032,23C3025,26 3018,29 3014,34L2997,55C2992,61 2995,62 3001,60ZM2888,380C2898,380 2907,371 2907,360C2907,356 2906,351 2908,347C2911,342 2917,340 2925,333C3073,215 3171,70 3189,-28C3193,-48 3195,-46 3214,-44C3228,-42 3229,-36 3217,-26C3200,-12 3184,7 3184,25C3184,62 3246,310 3295,325C3306,328 3309,319 3309,314L3309,40C3309,27 3317,17 3328,9C3364,-17 3410,2 3410,45C3410,80 3402,120 3392,136C3384,149 3375,147 3368,149C3358,153 3353,165 3357,175C3361,184 3372,189 3382,185C3392,182 3397,170 3393,161C3392,157 3388,150 3396,137C3421,94 3445,50 3445,24C3445,-18 3385,-34 3357,-14L3326,8C3315,16 3307,26 3307,39L3307,256C3307,266 3306,271 3299,269C3262,259 3209,37 3209,7C3209,-9 3219,-21 3240,-43L3254,-58C3295,-102 3375,-137 3375,-168C3375,-184 3359,-191 3327,-191C3283,-191 3263,-183 3251,-164C3238,-143 3235,-108 3230,-84C3228,-74 3223,-70 3208,-70C3190,-70 3189,-85 3184,-104C3182,-115 3178,-127 3171,-130C3164,-133 3154,-127 3144,-122L3094,-99C3078,-92 3081,-99 3069,-99C3062,-99 3056,-95 3054,-89C3050,-79 3049,-76 3039,-71C2986,-45 2951,-30 2951,13C2951,25 2958,38 2958,71L2958,170C2958,179 2959,188 2967,183L2981,174C2985,171 2986,167 2986,162L2986,58C2986,22 2958,21 2958,6C2958,-27 2990,-44 3041,-68C3057,-76 3062,-68 3069,-68C3077,-68 3084,-75 3084,-83C3084,-92 3084,-92 3096,-97C3112,-105 3132,-113 3141,-113C3148,-113 3153,-104 3156,-97C3166,-71 3162,-70 3137,-65C3104,-58 3083,-48 3059,-37C3048,-32 3040,-39 3033,-39C3022,-39 3013,-30 3013,-19C3013,-8 3022,1 3033,1C3044,1 3053,-8 3053,-19C3053,-26 3054,-30 3060,-33C3084,-43 3105,-51 3137,-54C3159,-56 3175,-49 3171,-30C3153,66 3058,223 2922,331C2915,337 2909,341 2903,343C2898,344 2893,341 2888,341C2877,341 2868,350 2868,360C2868,371 2877,380 2888,380ZM3302,125L3302,18C3302,3 3292,-3 3284,-3C3275,-3 3262,0 3248,8C3242,11 3244,13 3249,13C3256,13 3277,16 3277,28L3277,109C3277,124 3302,141 3302,125ZM3560,343C3594,343 3572,298 3551,317C3531,335 3517,332 3507,321C3499,312 3500,301 3503,280C3527,104 3522,-118 3457,-118C3440,-118 3422,-104 3422,-81C3422,-49 3463,-31 3474,10C3491,74 3473,200 3465,274C3463,289 3460,296 3453,296C3444,296 3422,289 3417,259C3411,226 3371,252 3390,273C3403,287 3411,274 3442,301C3463,319 3489,329 3520,334C3536,336 3554,343 3560,343ZM3242,-68C3235,-68 3233,-71 3235,-76C3244,-103 3278,-151 3301,-172C3315,-186 3326,-188 3324,-175C3321,-146 3270,-68 3242,-68ZM3476,-11C3473,-11 3471,-13 3464,-23C3449,-44 3426,-59 3426,-81C3426,-93 3432,-99 3441,-99C3453,-99 3469,-68 3477,-21C3478,-13 3478,-11 3476,-11ZM3679,122C3665,119 3660,104 3660,93L3660,-43C3660,-50 3643,-59 3643,-52L3643,92C3643,103 3643,115 3623,117C3583,121 3535,47 3554,-1C3560,-15 3569,-15 3572,-15C3589,-15 3603,-29 3603,-46C3603,-63 3589,-77 3572,-77C3546,-77 3536,-49 3548,-31C3552,-24 3557,-17 3551,-2C3505,113 3631,190 3732,101C3749,86 3750,86 3764,86C3776,86 3786,76 3786,63C3786,51 3776,41 3764,41C3751,41 3740,51 3742,68C3743,80 3742,89 3732,97C3701,122 3690,125 3679,122ZM3486,-130L3499,-153C3502,-159 3499,-164 3494,-166C3444,-190 3409,-163 3385,-136C3379,-129 3381,-126 3387,-129C3411,-140 3441,-140 3471,-126C3476,-124 3483,-124 3486,-130ZM3732,-55L3738,-61C3743,-66 3743,-73 3729,-78L3563,-135C3558,-137 3550,-141 3544,-134L3533,-121C3529,-116 3538,-111 3544,-109L3704,-53C3716,-49 3725,-48 3732,-55ZM3628,219C3634,230 3647,235 3659,229C3669,224 3670,219 3671,213C3673,207 3678,201 3695,196C3753,178 3795,141 3802,104C3807,76 3816,67 3842,66C3868,65 3902,31 3926,-11C3931,-20 3939,-31 3932,-33C3917,-37 3875,19 3867,15C3863,13 3865,8 3874,-1C3915,-42 3947,-77 3945,-108C3944,-114 3939,-122 3932,-122L3886,-122C3880,-122 3880,-113 3882,-107C3894,-63 3890,-29 3853,15C3846,23 3838,32 3844,35C3856,41 3899,-12 3914,-12C3919,-12 3919,-8 3916,-2C3909,14 3880,44 3842,44C3830,44 3828,44 3832,32C3852,-22 3830,-86 3747,-132C3735,-139 3731,-143 3728,-151C3724,-161 3716,-170 3701,-170C3686,-170 3675,-159 3675,-145C3675,-130 3686,-119 3701,-119C3715,-119 3728,-139 3745,-129C3810,-90 3839,6 3805,71C3769,141 3732,156 3688,190C3677,199 3672,201 3666,194C3660,185 3650,182 3638,188C3627,194 3622,207 3628,219ZM3625,355C3640,355 3645,342 3647,335C3649,326 3656,323 3667,321C3676,319 3683,315 3683,309C3683,291 3659,291 3589,267C3574,262 3568,258 3570,254C3571,250 3575,253 3585,257C3642,281 3763,276 3868,306C3897,314 3908,305 3908,272C3908,246 3902,239 3887,239C3865,239 3838,254 3824,255C3809,256 3799,251 3799,242C3799,226 3787,214 3771,214C3756,214 3744,226 3744,242C3744,257 3756,269 3771,269C3782,269 3803,256 3822,260C3839,263 3852,277 3863,277C3892,277 3901,274 3901,280C3901,287 3888,286 3863,285C3781,283 3695,274 3597,230C3578,222 3573,229 3565,247C3557,266 3551,285 3575,285C3629,286 3677,295 3677,308C3677,313 3673,318 3660,318C3646,317 3642,299 3621,299C3610,299 3597,312 3597,327C3597,342 3610,355 3625,355Z" style="fill-rule:nonzero;"/>
        </g>
    </g>
</svg>
