<?xml version="1.0" encoding="UTF-8" standalone="no"?>
<!DOCTYPE svg PUBLIC "-//W3C//DTD SVG 1.1//EN" "http://www.w3.org/Graphics/SVG/1.1/DTD/svg11.dtd">
<svg width="100%" height="100%" viewBox="0 0 1440 900" version="1.1" xmlns="http://www.w3.org/2000/svg" xmlns:xlink="http://www.w3.org/1999/xlink" xml:space="preserve" xmlns:serif="http://www.serif.com/" style="fill-rule:evenodd;clip-rule:evenodd;stroke-linejoin:round;stroke-miterlimit:2;">
    <g transform="matrix(1,0,0,1,414.57,150.102)">
        <g id="Trimmen">
            <path d="M565.08,259.74L565.08,437.32L400.25,437.32C496.82,384.09 548.54,326.21 548.54,231.71C548.54,123.87 457.95,53.41 361.62,53.41C268.07,53.41 201.94,99.66 188.66,159.09L23,159.09L23,264.05L53.2,264.05L53.2,225.23L153.03,225.23C50.65,283.27 0,336.42 0,417.9C0,491.95 56.8,542.28 125.09,542.28C224.3,542.28 287.57,469.67 287.57,383.4C287.57,357.52 278.94,332.36 266.72,312.94C255.22,294.25 243.71,281.31 243.71,257.58C243.71,228.1 273.91,205.82 314.17,205.82C377.44,205.82 433.51,254.71 433.51,323.01C433.51,392.03 370.96,438.04 257.37,503.46L595.27,503.46L595.27,259.74L565.08,259.74ZM257.38,353.2C257.38,383.4 229.34,406.4 199.15,406.4C161.77,406.4 127.98,374.77 127.98,329.47C127.98,288.85 146.42,251.17 189.7,214.82C196.05,244.19 210.31,266.81 225.76,287.05C242.28,309.34 257.38,328.75 257.38,353.2Z" style="fill-rule:nonzero;"/>
        </g>
    </g>
</svg>
