<?xml version="1.0" encoding="UTF-8" standalone="no"?>
<!DOCTYPE svg PUBLIC "-//W3C//DTD SVG 1.1//EN" "http://www.w3.org/Graphics/SVG/1.1/DTD/svg11.dtd">
<svg width="100%" height="100%" viewBox="0 0 1024 768" version="1.1" xmlns="http://www.w3.org/2000/svg" xmlns:xlink="http://www.w3.org/1999/xlink" xml:space="preserve" xmlns:serif="http://www.serif.com/" style="fill-rule:evenodd;clip-rule:evenodd;stroke-linejoin:round;stroke-miterlimit:2;">
    <g transform="matrix(268.176,0,0,268.176,2.98115,180.746)">
        <path d="M0.336,-0.598C0.292,-0.579 0.251,-0.552 0.217,-0.519C0.152,-0.456 0.106,-0.364 0.132,-0.276C0.141,-0.246 0.158,-0.221 0.185,-0.206C0.211,-0.192 0.239,-0.189 0.268,-0.195C0.321,-0.206 0.374,-0.247 0.405,-0.302C0.406,-0.304 0.404,-0.306 0.403,-0.303C0.371,-0.248 0.32,-0.208 0.267,-0.198C0.238,-0.193 0.208,-0.197 0.188,-0.211C0.165,-0.226 0.149,-0.251 0.143,-0.279C0.125,-0.367 0.173,-0.449 0.228,-0.509C0.259,-0.543 0.297,-0.572 0.338,-0.593C0.471,-0.659 0.607,-0.622 0.736,-0.595C0.664,-0.535 0.589,-0.433 0.511,-0.325C0.429,-0.212 0.344,-0.096 0.269,-0.036C0.244,-0.016 0.217,0.004 0.188,0.018C0.146,0.037 0.097,0.048 0.058,0.024C0.039,0.013 0.028,-0.009 0.026,-0.032C0.025,-0.055 0.034,-0.077 0.049,-0.094C0.05,-0.096 0.049,-0.098 0.047,-0.096C0.031,-0.076 0.021,-0.055 0.019,-0.032C0.018,-0.007 0.031,0.021 0.051,0.033C0.096,0.062 0.148,0.043 0.19,0.022C0.219,0.007 0.247,-0.012 0.272,-0.033C0.347,-0.094 0.432,-0.21 0.514,-0.323C0.589,-0.427 0.661,-0.525 0.722,-0.578C0.689,-0.545 0.664,-0.507 0.646,-0.463C0.622,-0.409 0.609,-0.353 0.595,-0.296C0.581,-0.241 0.571,-0.183 0.56,-0.126C0.552,-0.084 0.539,-0.043 0.517,-0.006C0.51,0.007 0.501,0.018 0.49,0.028C0.488,0.03 0.488,0.033 0.492,0.031C0.522,0.011 0.568,-0.062 0.622,-0.145C0.654,-0.198 0.689,-0.252 0.725,-0.302C0.757,-0.346 0.788,-0.391 0.822,-0.434C0.862,-0.485 0.904,-0.534 0.954,-0.572C0.999,-0.574 1.041,-0.58 1.075,-0.596C1.091,-0.603 1.102,-0.614 1.099,-0.622C1.094,-0.635 1.058,-0.627 1.041,-0.622C1.014,-0.614 0.983,-0.599 0.953,-0.576C0.882,-0.573 0.813,-0.581 0.745,-0.596C0.754,-0.604 0.766,-0.613 0.777,-0.618C0.798,-0.629 0.824,-0.634 0.846,-0.625C0.847,-0.624 0.847,-0.625 0.846,-0.626C0.823,-0.637 0.793,-0.63 0.775,-0.621C0.762,-0.614 0.749,-0.606 0.739,-0.597C0.59,-0.627 0.479,-0.66 0.336,-0.598ZM0.743,-0.593C0.809,-0.58 0.881,-0.569 0.948,-0.572C0.899,-0.535 0.858,-0.484 0.819,-0.436C0.786,-0.392 0.754,-0.348 0.722,-0.303C0.687,-0.254 0.652,-0.199 0.619,-0.147C0.587,-0.096 0.556,-0.049 0.531,-0.016C0.553,-0.048 0.566,-0.086 0.577,-0.122C0.594,-0.177 0.602,-0.235 0.613,-0.292C0.624,-0.349 0.633,-0.406 0.654,-0.46C0.674,-0.511 0.703,-0.556 0.743,-0.593ZM1.042,-0.619C1.058,-0.624 1.093,-0.63 1.096,-0.621C1.097,-0.616 1.089,-0.607 1.074,-0.599C1.041,-0.584 1.001,-0.577 0.959,-0.576C0.987,-0.597 1.016,-0.611 1.042,-0.619Z" style="fill-rule:nonzero;"/>
    </g>
    <g transform="matrix(268.176,0,0,268.176,191.3,180.746)">
        <path d="M-0.029,-0.028C-0.016,-0.069 0.008,-0.107 0.034,-0.139C0.049,-0.156 0.066,-0.172 0.082,-0.181C0.094,-0.188 0.116,-0.195 0.123,-0.181C0.129,-0.172 0.126,-0.154 0.112,-0.132C0.072,-0.066 0.021,-0.013 -0.01,-0.004C-0.028,0.001 -0.035,-0.012 -0.029,-0.028ZM0.203,-0.121C0.158,-0.065 0.108,-0.003 0.076,-0.003C0.061,-0.003 0.073,-0.029 0.076,-0.036C0.102,-0.083 0.128,-0.119 0.153,-0.158C0.162,-0.171 0.173,-0.188 0.179,-0.194C0.173,-0.189 0.161,-0.186 0.152,-0.188C0.126,-0.148 0.122,-0.143 0.119,-0.138C0.132,-0.163 0.129,-0.176 0.126,-0.183C0.117,-0.198 0.089,-0.191 0.078,-0.186C0.062,-0.178 0.041,-0.164 0.024,-0.148C-0.008,-0.116 -0.041,-0.073 -0.041,-0.028C-0.04,-0.008 -0.028,0.003 -0.009,-0.001C0.017,-0.009 0.056,-0.047 0.089,-0.092C0.075,-0.07 0.059,-0.046 0.059,-0.023C0.059,-0.013 0.063,-0 0.076,-0C0.11,-0 0.16,-0.063 0.205,-0.119C0.207,-0.122 0.204,-0.123 0.203,-0.121Z" style="fill-rule:nonzero;"/>
    </g>
    <g transform="matrix(268.176,0,0,268.176,245.68,180.746)">
        <path d="M0.094,-0.252C0.082,-0.233 0.013,-0.137 0,-0.121C-0.002,-0.119 0.001,-0.117 0.002,-0.119C0.009,-0.128 0.034,-0.162 0.057,-0.193L-0.255,0.279C-0.264,0.292 -0.275,0.309 -0.282,0.317C-0.275,0.312 -0.264,0.309 -0.256,0.31L-0.004,-0.071C0.044,-0.136 0.105,-0.192 0.129,-0.19C0.155,-0.186 0.121,-0.141 0.116,-0.132C0.092,-0.099 0.064,-0.065 0.055,-0.034C0.051,-0.02 0.053,-0 0.072,-0C0.083,-0 0.093,-0.006 0.102,-0.013C0.131,-0.033 0.165,-0.076 0.199,-0.119C0.201,-0.122 0.198,-0.123 0.197,-0.121C0.163,-0.077 0.128,-0.036 0.101,-0.015C0.092,-0.008 0.081,-0.003 0.072,-0.003C0.063,-0.003 0.062,-0.009 0.063,-0.017C0.068,-0.041 0.109,-0.089 0.131,-0.123C0.139,-0.135 0.147,-0.149 0.149,-0.163C0.151,-0.178 0.144,-0.193 0.128,-0.193C0.102,-0.193 0.054,-0.148 0.013,-0.097L0.089,-0.212C0.097,-0.225 0.114,-0.249 0.122,-0.259C0.115,-0.253 0.104,-0.251 0.094,-0.252Z" style="fill-rule:nonzero;"/>
    </g>
    <g transform="matrix(268.176,0,0,268.176,298.421,180.746)">
        <path d="M0.074,-0.057C0.047,-0.027 0.008,-0 -0.011,-0.003C-0.024,-0.006 -0.024,-0.024 -0.021,-0.036C-0.013,-0.071 0.011,-0.111 0.034,-0.139C0.052,-0.161 0.081,-0.185 0.1,-0.192C0.111,-0.195 0.119,-0.195 0.127,-0.189C0.131,-0.185 0.133,-0.178 0.133,-0.171C0.133,-0.168 0.136,-0.168 0.136,-0.171C0.136,-0.179 0.133,-0.187 0.129,-0.191C0.122,-0.198 0.111,-0.199 0.096,-0.195C0.077,-0.19 0.052,-0.177 0.023,-0.148C-0.001,-0.126 -0.023,-0.089 -0.033,-0.058C-0.039,-0.034 -0.038,-0 -0.01,-0C0.014,-0 0.049,-0.026 0.075,-0.053C0.084,-0.063 0.094,-0.075 0.102,-0.086C0.104,-0.083 0.109,-0.08 0.114,-0.079C0.126,-0.078 0.144,-0.086 0.172,-0.119C0.173,-0.121 0.171,-0.122 0.17,-0.121C0.158,-0.107 0.135,-0.081 0.117,-0.082C0.109,-0.083 0.106,-0.088 0.105,-0.092C0.112,-0.102 0.119,-0.113 0.124,-0.125C0.129,-0.135 0.135,-0.151 0.129,-0.155C0.124,-0.158 0.114,-0.15 0.105,-0.134C0.094,-0.115 0.093,-0.098 0.099,-0.088C0.092,-0.077 0.083,-0.067 0.074,-0.057Z" style="fill-rule:nonzero;"/>
    </g>
    <g transform="matrix(268.176,0,0,268.176,344.011,180.746)">
        <path d="M0.229,-0.343C0.254,-0.369 0.278,-0.398 0.298,-0.427C0.346,-0.491 0.343,-0.52 0.34,-0.529C0.334,-0.547 0.311,-0.542 0.299,-0.534C0.277,-0.522 0.259,-0.503 0.243,-0.485C0.183,-0.414 0.132,-0.333 0.082,-0.256C0.046,-0.201 0.021,-0.167 -0.007,-0.108C-0.019,-0.082 -0.058,-0.003 -0.001,-0C0.028,0.002 0.076,-0.036 0.142,-0.119C0.142,-0.121 0.141,-0.122 0.139,-0.121C0.076,-0.039 0.024,0.001 -0.002,-0.003C-0.019,-0.006 -0.018,-0.022 -0.016,-0.035C-0.008,-0.073 0.015,-0.112 0.034,-0.147C0.059,-0.173 0.083,-0.196 0.112,-0.224C0.15,-0.261 0.192,-0.303 0.229,-0.343ZM0.296,-0.428C0.275,-0.4 0.251,-0.372 0.227,-0.346C0.191,-0.306 0.148,-0.263 0.109,-0.226C0.084,-0.201 0.064,-0.183 0.042,-0.16C0.11,-0.264 0.176,-0.379 0.251,-0.481C0.266,-0.499 0.281,-0.518 0.301,-0.531C0.312,-0.538 0.332,-0.544 0.337,-0.528C0.343,-0.51 0.328,-0.472 0.296,-0.428Z" style="fill-rule:nonzero;"/>
    </g>
    <g transform="matrix(268.176,0,0,268.176,381.407,180.746)">
        <path d="M0.148,-0.121C0.122,-0.088 0.083,-0.048 0.052,-0.027C0.028,-0.011 0.007,-0.003 -0.008,-0.003C-0.023,-0.004 -0.025,-0.023 -0.022,-0.036C-0.018,-0.059 -0.006,-0.08 0.004,-0.095C0.059,-0.104 0.108,-0.138 0.123,-0.163C0.132,-0.18 0.126,-0.196 0.103,-0.194C0.081,-0.192 0.043,-0.169 0.021,-0.146C-0.009,-0.117 -0.039,-0.072 -0.037,-0.03C-0.036,-0.013 -0.026,-0 -0.007,-0C0.009,-0 0.029,-0.008 0.053,-0.025C0.09,-0.05 0.123,-0.084 0.151,-0.119C0.151,-0.121 0.149,-0.122 0.148,-0.121ZM0.121,-0.165C0.108,-0.144 0.064,-0.109 0.006,-0.098C0.015,-0.112 0.026,-0.128 0.039,-0.142C0.057,-0.162 0.081,-0.187 0.104,-0.191C0.124,-0.193 0.128,-0.177 0.121,-0.165Z" style="fill-rule:nonzero;"/>
    </g>
    <g transform="matrix(268.176,0,0,268.176,421.186,180.746)">
        <path d="M0.074,-0.057C0.047,-0.027 0.008,-0 -0.011,-0.003C-0.024,-0.006 -0.024,-0.024 -0.021,-0.036C-0.013,-0.071 0.011,-0.111 0.034,-0.139C0.052,-0.161 0.081,-0.185 0.1,-0.192C0.111,-0.195 0.119,-0.195 0.127,-0.189C0.131,-0.185 0.133,-0.178 0.133,-0.171C0.133,-0.168 0.136,-0.168 0.136,-0.171C0.136,-0.179 0.133,-0.187 0.129,-0.191C0.122,-0.198 0.111,-0.199 0.096,-0.195C0.077,-0.19 0.052,-0.177 0.023,-0.148C-0.001,-0.126 -0.023,-0.089 -0.033,-0.058C-0.039,-0.034 -0.038,-0 -0.01,-0C0.014,-0 0.049,-0.026 0.075,-0.053C0.084,-0.063 0.094,-0.075 0.102,-0.086C0.104,-0.083 0.109,-0.08 0.114,-0.079C0.126,-0.078 0.144,-0.086 0.172,-0.119C0.173,-0.121 0.171,-0.122 0.17,-0.121C0.158,-0.107 0.135,-0.081 0.117,-0.082C0.109,-0.083 0.106,-0.088 0.105,-0.092C0.112,-0.102 0.119,-0.113 0.124,-0.125C0.129,-0.135 0.135,-0.151 0.129,-0.155C0.124,-0.158 0.114,-0.15 0.105,-0.134C0.094,-0.115 0.093,-0.098 0.099,-0.088C0.092,-0.077 0.083,-0.067 0.074,-0.057Z" style="fill-rule:nonzero;"/>
    </g>
    <g transform="matrix(268.176,0,0,268.176,466.776,180.746)">
        <path d="M0.051,-0.094C0.067,-0.118 0.075,-0.131 0.081,-0.144C0.094,-0.172 0.093,-0.192 0.078,-0.192C0.059,-0.192 0.034,-0.162 0,-0.121C-0.001,-0.119 0.001,-0.118 0.002,-0.119C0.036,-0.159 0.062,-0.191 0.078,-0.189C0.089,-0.188 0.072,-0.162 0.067,-0.152C0.054,-0.131 0.036,-0.104 0.021,-0.079L-0.003,-0.043C-0.01,-0.033 -0.028,-0.006 -0.037,0.005C-0.031,-0.001 -0.019,-0.003 -0.009,-0.002C0.005,-0.024 0.016,-0.042 0.031,-0.063C0.081,-0.134 0.143,-0.192 0.169,-0.19C0.194,-0.186 0.161,-0.141 0.155,-0.132C0.132,-0.099 0.103,-0.065 0.094,-0.034C0.091,-0.02 0.093,-0 0.112,-0C0.122,-0 0.132,-0.006 0.142,-0.013C0.17,-0.033 0.204,-0.076 0.238,-0.119C0.24,-0.122 0.238,-0.123 0.236,-0.121C0.202,-0.077 0.168,-0.036 0.14,-0.015C0.131,-0.008 0.121,-0.003 0.112,-0.003C0.103,-0.003 0.101,-0.009 0.103,-0.017C0.108,-0.041 0.148,-0.089 0.17,-0.123C0.178,-0.135 0.186,-0.149 0.189,-0.163C0.191,-0.178 0.184,-0.193 0.168,-0.193C0.142,-0.193 0.093,-0.147 0.051,-0.094Z" style="fill-rule:nonzero;"/>
    </g>
    <g transform="matrix(268.176,0,0,268.176,562.426,180.746)">
        <path d="M0.159,0.008C0.158,0.015 0.157,0.023 0.157,0.031C0.137,0.029 0.117,0.024 0.098,0.012C0.008,-0.056 0.051,-0.185 0.099,-0.262C0.135,-0.318 0.179,-0.362 0.23,-0.396C0.268,-0.42 0.317,-0.439 0.349,-0.44C0.374,-0.441 0.395,-0.435 0.409,-0.423C0.429,-0.406 0.436,-0.379 0.427,-0.349C0.427,-0.347 0.428,-0.347 0.429,-0.349C0.44,-0.38 0.433,-0.408 0.412,-0.426C0.397,-0.438 0.374,-0.446 0.348,-0.444C0.306,-0.443 0.263,-0.425 0.226,-0.404C0.168,-0.37 0.118,-0.323 0.085,-0.27C0.033,-0.186 0.002,-0.044 0.097,0.016C0.115,0.028 0.136,0.033 0.158,0.035C0.159,0.059 0.168,0.084 0.186,0.098C0.206,0.114 0.236,0.119 0.261,0.116C0.324,0.108 0.421,0.068 0.573,-0.119C0.574,-0.122 0.572,-0.123 0.571,-0.121C0.422,0.062 0.321,0.107 0.261,0.113C0.232,0.116 0.207,0.11 0.188,0.096C0.172,0.083 0.163,0.059 0.161,0.035C0.197,0.036 0.235,0.025 0.266,0.01C0.348,-0.029 0.407,-0.104 0.46,-0.176C0.507,-0.244 0.543,-0.311 0.582,-0.385C0.616,-0.409 0.656,-0.444 0.698,-0.482C0.744,-0.523 0.767,-0.558 0.777,-0.578C0.791,-0.604 0.793,-0.626 0.784,-0.637C0.775,-0.647 0.756,-0.644 0.731,-0.627C0.703,-0.607 0.678,-0.577 0.658,-0.548C0.623,-0.497 0.594,-0.443 0.555,-0.373C0.44,-0.294 0.298,-0.226 0.21,-0.107C0.184,-0.073 0.166,-0.034 0.159,0.008ZM0.446,-0.184C0.398,-0.109 0.344,-0.036 0.264,0.007C0.232,0.022 0.196,0.033 0.161,0.031C0.161,0.023 0.161,0.016 0.162,0.008C0.169,-0.033 0.188,-0.072 0.213,-0.105C0.299,-0.222 0.433,-0.287 0.551,-0.366C0.516,-0.303 0.483,-0.242 0.446,-0.184ZM0.782,-0.634C0.784,-0.631 0.793,-0.617 0.774,-0.58C0.764,-0.559 0.742,-0.526 0.696,-0.485C0.656,-0.449 0.618,-0.414 0.586,-0.392C0.61,-0.441 0.638,-0.497 0.667,-0.542C0.686,-0.572 0.705,-0.601 0.733,-0.622C0.745,-0.632 0.77,-0.647 0.782,-0.634Z" style="fill-rule:nonzero;"/>
    </g>
    <g transform="matrix(268.176,0,0,268.176,715.435,180.746)">
        <path d="M0.148,-0.121C0.122,-0.088 0.083,-0.048 0.052,-0.027C0.028,-0.011 0.007,-0.003 -0.008,-0.003C-0.023,-0.004 -0.025,-0.023 -0.022,-0.036C-0.018,-0.059 -0.006,-0.08 0.004,-0.095C0.059,-0.104 0.108,-0.138 0.123,-0.163C0.132,-0.18 0.126,-0.196 0.103,-0.194C0.081,-0.192 0.043,-0.169 0.021,-0.146C-0.009,-0.117 -0.039,-0.072 -0.037,-0.03C-0.036,-0.013 -0.026,-0 -0.007,-0C0.009,-0 0.029,-0.008 0.053,-0.025C0.09,-0.05 0.123,-0.084 0.151,-0.119C0.151,-0.121 0.149,-0.122 0.148,-0.121ZM0.121,-0.165C0.108,-0.144 0.064,-0.109 0.006,-0.098C0.015,-0.112 0.026,-0.128 0.039,-0.142C0.057,-0.162 0.081,-0.187 0.104,-0.191C0.124,-0.193 0.128,-0.177 0.121,-0.165Z" style="fill-rule:nonzero;"/>
    </g>
    <g transform="matrix(268.176,0,0,268.176,755.214,180.746)">
        <path d="M0.074,-0.126C0.067,-0.116 0.049,-0.093 0.044,-0.084C0.031,-0.064 0.017,-0.041 0.017,-0.021C0.017,-0.011 0.022,-0 0.034,-0C0.069,-0 0.119,-0.063 0.164,-0.119C0.166,-0.122 0.163,-0.123 0.162,-0.121C0.117,-0.065 0.067,-0.003 0.034,-0.003C0.019,-0.003 0.031,-0.029 0.034,-0.036C0.044,-0.053 0.052,-0.064 0.073,-0.093C0.096,-0.126 0.108,-0.139 0.11,-0.152C0.113,-0.172 0.098,-0.179 0.086,-0.181C0.074,-0.183 0.052,-0.183 0.048,-0.19C0.049,-0.193 0.05,-0.195 0.051,-0.198C0.056,-0.213 0.056,-0.226 0.051,-0.231C0.049,-0.233 0.047,-0.234 0.044,-0.233C0.039,-0.232 0.035,-0.227 0.033,-0.219C0.03,-0.211 0.031,-0.202 0.035,-0.195C0.037,-0.192 0.041,-0.188 0.043,-0.186C0.031,-0.159 0.007,-0.129 0,-0.121C-0.002,-0.119 0.001,-0.118 0.002,-0.119C0.009,-0.128 0.033,-0.158 0.046,-0.185C0.054,-0.181 0.065,-0.182 0.086,-0.179C0.094,-0.178 0.102,-0.172 0.094,-0.157C0.089,-0.146 0.081,-0.136 0.074,-0.126Z" style="fill-rule:nonzero;"/>
    </g>
    <g transform="matrix(268.176,0,0,268.176,798.569,180.746)">
        <path d="M0.079,-0.144C0.099,-0.178 0.095,-0.194 0.08,-0.194C0.061,-0.194 0.034,-0.162 0,-0.121C-0.001,-0.119 0.001,-0.118 0.002,-0.119C0.036,-0.159 0.064,-0.193 0.08,-0.191C0.091,-0.19 0.074,-0.167 0.063,-0.152C0.017,-0.089 0.008,-0.067 0.001,-0.046C-0.004,-0.028 -0.001,-0 0.023,-0C0.054,-0 0.107,-0.054 0.146,-0.108C0.151,-0.099 0.157,-0.093 0.168,-0.093C0.181,-0.094 0.197,-0.103 0.209,-0.119C0.211,-0.121 0.209,-0.123 0.207,-0.121C0.194,-0.106 0.181,-0.096 0.168,-0.096C0.153,-0.096 0.151,-0.109 0.151,-0.114C0.164,-0.133 0.191,-0.172 0.189,-0.189C0.189,-0.192 0.188,-0.194 0.187,-0.194C0.181,-0.196 0.165,-0.177 0.162,-0.172C0.153,-0.159 0.14,-0.131 0.145,-0.111C0.124,-0.081 0.1,-0.054 0.079,-0.036C0.056,-0.014 0.037,-0.002 0.023,-0.003C0.002,-0.003 0.012,-0.031 0.016,-0.041C0.033,-0.083 0.058,-0.109 0.079,-0.144Z" style="fill-rule:nonzero;"/>
    </g>
    <g transform="matrix(268.176,0,0,268.176,854.141,180.746)">
        <path d="M0.121,-0.284C0.117,-0.287 0.109,-0.282 0.103,-0.273C0.098,-0.265 0.096,-0.256 0.1,-0.254C0.104,-0.252 0.112,-0.257 0.118,-0.265C0.123,-0.273 0.125,-0.282 0.121,-0.284ZM0.063,-0.152C0.048,-0.131 0.034,-0.112 0.021,-0.092C0.006,-0.07 -0.011,-0.044 -0.011,-0.021C-0.011,-0.011 -0.006,-0 0.007,-0C0.041,-0 0.091,-0.062 0.136,-0.119C0.138,-0.122 0.136,-0.123 0.134,-0.121C0.089,-0.065 0.039,-0.003 0.007,-0.003C-0.008,-0.003 0.004,-0.029 0.007,-0.036C0.03,-0.078 0.056,-0.108 0.079,-0.144C0.099,-0.178 0.094,-0.194 0.079,-0.194C0.061,-0.194 0.037,-0.166 0,-0.121C-0.001,-0.119 0.001,-0.118 0.002,-0.119C0.036,-0.159 0.062,-0.191 0.078,-0.191C0.089,-0.191 0.074,-0.167 0.063,-0.152Z" style="fill-rule:nonzero;"/>
    </g>
    <g transform="matrix(268.176,0,0,268.176,890.047,180.746)">
        <path d="M0.151,-0.121C0.117,-0.083 0.085,-0.051 0.055,-0.029C0.027,-0.009 0.002,-0.001 -0.012,-0.004C-0.024,-0.008 -0.026,-0.024 -0.023,-0.036C-0.016,-0.068 0.008,-0.108 0.032,-0.137C0.05,-0.159 0.077,-0.183 0.097,-0.189C0.116,-0.196 0.131,-0.188 0.128,-0.171C0.127,-0.166 0.122,-0.156 0.116,-0.153C0.113,-0.159 0.104,-0.156 0.099,-0.151C0.095,-0.146 0.094,-0.139 0.097,-0.137C0.099,-0.134 0.105,-0.136 0.109,-0.138C0.118,-0.144 0.128,-0.159 0.13,-0.171C0.134,-0.192 0.113,-0.198 0.094,-0.193C0.075,-0.188 0.047,-0.173 0.021,-0.147C-0.008,-0.117 -0.039,-0.072 -0.037,-0.03C-0.035,-0.011 -0.025,-0.001 -0.007,-0C0.009,-0 0.032,-0.009 0.057,-0.027C0.088,-0.049 0.121,-0.083 0.153,-0.119C0.154,-0.121 0.152,-0.123 0.151,-0.121Z" style="fill-rule:nonzero;"/>
    </g>
    <g transform="matrix(268.176,0,0,268.176,930.422,180.746)">
        <path d="M0.148,-0.121C0.122,-0.088 0.083,-0.048 0.052,-0.027C0.028,-0.011 0.007,-0.003 -0.008,-0.003C-0.023,-0.004 -0.025,-0.023 -0.022,-0.036C-0.018,-0.059 -0.006,-0.08 0.004,-0.095C0.059,-0.104 0.108,-0.138 0.123,-0.163C0.132,-0.18 0.126,-0.196 0.103,-0.194C0.081,-0.192 0.043,-0.169 0.021,-0.146C-0.009,-0.117 -0.039,-0.072 -0.037,-0.03C-0.036,-0.013 -0.026,-0 -0.007,-0C0.009,-0 0.029,-0.008 0.053,-0.025C0.09,-0.05 0.123,-0.084 0.151,-0.119C0.151,-0.121 0.149,-0.122 0.148,-0.121ZM0.121,-0.165C0.108,-0.144 0.064,-0.109 0.006,-0.098C0.015,-0.112 0.026,-0.128 0.039,-0.142C0.057,-0.162 0.081,-0.187 0.104,-0.191C0.124,-0.193 0.128,-0.177 0.121,-0.165Z" style="fill-rule:nonzero;"/>
    </g>
    <g transform="matrix(268.176,0,0,268.176,970.202,180.746)">
        <path d="M0.053,-0.115C0.051,-0.098 0.045,-0.081 0.038,-0.066C0.019,-0.061 -0.004,-0.054 -0.02,-0.046C-0.037,-0.037 -0.049,-0.026 -0.051,-0.017C-0.054,0.004 -0.022,0.001 -0.01,-0.003C0.004,-0.007 0.018,-0.015 0.032,-0.026C0.044,-0.037 0.056,-0.053 0.061,-0.069C0.083,-0.076 0.106,-0.089 0.132,-0.119C0.133,-0.122 0.131,-0.122 0.129,-0.121C0.103,-0.09 0.085,-0.081 0.062,-0.072C0.066,-0.086 0.068,-0.1 0.067,-0.114C0.064,-0.139 0.056,-0.16 0.058,-0.184C0.063,-0.191 0.106,-0.236 0.088,-0.238C0.083,-0.238 0.074,-0.232 0.067,-0.221C0.059,-0.211 0.056,-0.2 0.055,-0.187C0.039,-0.166 0.012,-0.135 0,-0.121C-0.001,-0.119 0.001,-0.118 0.002,-0.119C0.012,-0.132 0.039,-0.162 0.054,-0.181C0.054,-0.159 0.058,-0.142 0.053,-0.115ZM-0.019,-0.043C-0.006,-0.05 0.019,-0.059 0.037,-0.062C0.033,-0.053 0.028,-0.043 0.022,-0.035C0.013,-0.023 0.002,-0.012 -0.012,-0.007C-0.023,-0.003 -0.05,0.001 -0.048,-0.016C-0.046,-0.024 -0.037,-0.033 -0.019,-0.043Z" style="fill-rule:nonzero;"/>
    </g>
</svg>
