<?xml version="1.0" standalone="no"?>
<!DOCTYPE svg PUBLIC "-//W3C//DTD SVG 20010904//EN"
 "http://www.w3.org/TR/2001/REC-SVG-20010904/DTD/svg10.dtd">
<svg version="1.0" xmlns="http://www.w3.org/2000/svg"
 width="240.000000pt" height="240.000000pt" viewBox="0 0 240.000000 240.000000"
 preserveAspectRatio="xMidYMid meet">
<metadata>
Created by potrace 1.11, written by Peter Selinger 2001-2013
</metadata>
<g transform="translate(0.000000,240.000000) scale(0.100000,-0.100000)"
fill="#000000" stroke="none">
<path d="M161 2200 c-4 -8 -6 -465 -6 -1015 l1 -1000 994 -1 c547 0 1000 1
1005 3 7 2 10 190 9 561 l0 557 39 42 40 42 -413 413 -413 413 -624 0 c-548 0
-626 -2 -632 -15z m369 -79 c10 -1 60 -52 60 -62 0 -3 -32 -5 -71 -4 -61 2
-74 6 -99 30 -16 16 -28 31 -26 34 3 5 99 6 136 2z m320 -31 c16 -17 30 -32
30 -34 0 -1 -33 -2 -74 -1 -67 2 -77 5 -105 31 -37 35 -28 40 59 37 52 -2 63
-6 90 -33z m279 1 c17 -17 31 -33 31 -34 0 -2 -127 -1 -143 2 -15 2 -67 59
-57 63 6 2 39 3 74 2 57 0 66 -3 95 -33z m270 10 c49 -38 41 -48 -38 -46 -62
2 -73 5 -100 31 -36 34 -29 39 52 39 42 0 62 -5 86 -24z m-1089 -56 c0 -12 -3
-24 -6 -28 -12 -11 -54 51 -54 79 l0 28 30 -29 c17 -16 30 -38 30 -50z m133
-112 c30 -29 36 -48 12 -39 -8 3 -15 0 -15 -6 0 -7 -18 6 -40 27 -22 21 -40
42 -40 46 0 16 56 -4 83 -28z m283 -4 l35 -35 -76 1 c-68 1 -78 4 -105 30 -16
15 -28 31 -26 34 2 3 34 6 70 6 62 -1 69 -3 102 -36z m283 2 c17 -17 31 -33
31 -34 0 -2 -34 -2 -75 -2 -69 1 -78 4 -105 30 -37 35 -28 41 59 39 52 -1 62
-5 90 -33z m276 4 c18 -17 31 -33 29 -36 -2 -3 -35 -5 -73 -4 -61 2 -73 5
-100 30 -16 16 -28 31 -26 34 2 3 33 6 70 6 60 -1 71 -4 100 -30z m283 -3 c17
-17 28 -33 24 -35 -4 -2 -37 -3 -74 -2 -61 2 -71 5 -97 33 -16 16 -28 32 -26
34 2 2 35 3 73 2 64 -1 72 -3 100 -32z m-815 -512 c-2 -3 -117 -5 -254 -5
l-249 -1 0 260 0 260 254 -254 c140 -140 252 -257 249 -260z m-150 352 c26
-25 38 -50 17 -37 -6 3 -13 0 -16 -8 -4 -11 -15 -4 -44 26 -55 60 -19 76 43
19z m242 29 c19 -2 75 -59 62 -64 -7 -2 -40 -3 -75 -2 -54 2 -67 6 -92 30 -17
16 -26 31 -21 34 8 5 82 6 126 2z m285 0 c14 -2 71 -59 62 -64 -4 -2 -37 -3
-74 -2 -60 1 -71 4 -98 30 -24 23 -27 31 -16 35 13 4 92 5 126 1z m281 0 c9
-1 72 -61 68 -62 -2 -1 -35 -2 -74 -3 -65 -2 -72 0 -101 29 -24 22 -28 31 -17
35 11 5 100 5 124 1z m275 0 c15 -1 64 -45 64 -57 0 -14 -119 -11 -146 4 -12
6 -28 22 -36 34 l-15 23 61 -1 c33 -1 66 -2 72 -3z m-924 -188 c34 -33 35 -40
4 -40 -15 0 -39 14 -61 37 l-37 38 33 -4 c18 -2 46 -16 61 -31z m277 4 c17
-14 31 -30 31 -35 0 -5 -32 -8 -70 -7 -63 1 -73 5 -100 30 -36 35 -29 40 53
39 44 0 61 -6 86 -27z m286 -4 c20 -17 32 -33 28 -35 -4 -3 -39 -4 -76 -3 -63
1 -71 4 -98 32 -16 18 -29 33 -29 35 0 2 31 3 69 3 63 -1 73 -4 106 -32z m284
-2 c17 -17 27 -32 23 -34 -4 -2 -37 -3 -73 -2 -59 1 -70 4 -97 30 -17 16 -27
32 -22 35 5 3 39 4 75 3 58 -2 68 -6 94 -32z m282 -1 c19 -16 31 -31 29 -31
-3 -1 -35 -2 -72 -3 -61 -2 -71 1 -100 26 -41 36 -29 45 51 41 50 -2 65 -8 92
-33z m-962 -164 l32 -33 -31 2 c-30 1 -94 51 -85 65 9 15 54 -3 84 -34z m275
6 c20 -18 35 -32 34 -33 -2 -1 -34 -2 -72 -4 -63 -2 -71 0 -102 27 -19 17 -32
33 -30 37 2 3 33 6 69 5 58 0 69 -3 101 -32z m283 0 c12 -15 23 -30 23 -34 0
-3 -32 -5 -71 -3 -65 2 -74 5 -100 33 -34 36 -28 40 65 34 50 -2 63 -7 83 -30z
m282 -1 c17 -17 27 -32 23 -34 -4 -2 -37 -3 -73 -2 -59 1 -70 4 -97 30 -17 16
-27 32 -22 35 5 3 38 4 74 3 57 -2 68 -6 95 -32z m278 5 c17 -17 30 -33 28
-36 -2 -4 -36 -6 -74 -5 -65 1 -73 4 -100 33 -17 17 -26 32 -20 34 5 2 37 3
71 3 55 0 66 -3 95 -29z"/>
</g>
</svg>
