<?xml version="1.0" encoding="UTF-8" standalone="no"?>
<!DOCTYPE svg PUBLIC "-//W3C//DTD SVG 1.1//EN" "http://www.w3.org/Graphics/SVG/1.1/DTD/svg11.dtd">
<svg width="100%" height="100%" viewBox="0 0 1440 900" version="1.1" xmlns="http://www.w3.org/2000/svg" xmlns:xlink="http://www.w3.org/1999/xlink" xml:space="preserve" xmlns:serif="http://www.serif.com/" style="fill-rule:evenodd;clip-rule:evenodd;stroke-linejoin:round;stroke-miterlimit:2;">
    <g id="Trimmen" transform="matrix(0.695098,0,0,0.695098,-1418.85,383.902)">
        <g transform="matrix(3.86194,0,0,3.86194,1872.45,-1959.59)">
            <g transform="matrix(46.393,0,0,46.393,49.6365,429.646)">
                <path d="M0.15,0.025C0.15,0.054 0.155,0.083 0.164,0.111C0.172,0.138 0.185,0.163 0.202,0.186C0.219,0.209 0.239,0.23 0.262,0.247C0.284,0.264 0.31,0.277 0.338,0.286C0.366,0.295 0.395,0.3 0.425,0.3L0.425,0.4C0.357,0.4 0.294,0.383 0.237,0.35C0.18,0.316 0.134,0.27 0.101,0.213C0.067,0.156 0.05,0.093 0.05,0.025L0.15,0.025ZM0.05,-0.625C0.05,-0.693 0.067,-0.756 0.101,-0.813C0.134,-0.87 0.18,-0.916 0.237,-0.95C0.294,-0.983 0.357,-1 0.425,-1L0.425,-0.9C0.395,-0.9 0.366,-0.895 0.338,-0.886C0.31,-0.877 0.284,-0.864 0.262,-0.847C0.239,-0.83 0.219,-0.809 0.202,-0.786C0.185,-0.763 0.172,-0.738 0.164,-0.711C0.155,-0.683 0.15,-0.654 0.15,-0.625C0.15,-0.596 0.155,-0.567 0.164,-0.54C0.172,-0.512 0.185,-0.487 0.202,-0.464C0.219,-0.441 0.239,-0.421 0.262,-0.404C0.284,-0.387 0.31,-0.373 0.338,-0.364C0.366,-0.355 0.395,-0.35 0.425,-0.35C0.493,-0.35 0.556,-0.333 0.613,-0.3C0.67,-0.266 0.716,-0.22 0.75,-0.163C0.783,-0.106 0.8,-0.043 0.8,0.025C0.8,0.093 0.783,0.156 0.75,0.213C0.716,0.27 0.67,0.316 0.613,0.35C0.556,0.383 0.493,0.4 0.425,0.4L0.425,0.3C0.455,0.3 0.484,0.295 0.512,0.286C0.54,0.277 0.566,0.264 0.589,0.247C0.612,0.23 0.631,0.209 0.648,0.186C0.665,0.163 0.678,0.138 0.687,0.111C0.696,0.083 0.7,0.054 0.7,0.025C0.7,-0.004 0.696,-0.033 0.687,-0.061C0.678,-0.088 0.665,-0.113 0.648,-0.136C0.631,-0.159 0.612,-0.18 0.589,-0.197C0.566,-0.214 0.54,-0.227 0.512,-0.236C0.484,-0.245 0.455,-0.25 0.425,-0.25C0.357,-0.25 0.294,-0.267 0.237,-0.301C0.18,-0.334 0.134,-0.38 0.101,-0.437C0.067,-0.494 0.05,-0.557 0.05,-0.625ZM0.7,-0.625C0.7,-0.654 0.696,-0.683 0.687,-0.711C0.678,-0.738 0.665,-0.763 0.648,-0.786C0.631,-0.809 0.612,-0.83 0.589,-0.847C0.566,-0.864 0.54,-0.877 0.512,-0.886C0.484,-0.895 0.455,-0.9 0.425,-0.9L0.425,-1C0.493,-1 0.556,-0.983 0.613,-0.95C0.67,-0.916 0.716,-0.87 0.75,-0.813C0.783,-0.756 0.8,-0.693 0.8,-0.625L0.7,-0.625Z" style="fill-rule:nonzero;"/>
            </g>
            <g transform="matrix(46.393,0,0,46.393,89.0706,429.646)">
                <path d="M0.3,-0C0.255,-0 0.213,-0.011 0.175,-0.034C0.136,-0.056 0.106,-0.086 0.084,-0.125C0.061,-0.163 0.05,-0.205 0.05,-0.25L0.15,-0.25C0.15,-0.234 0.152,-0.219 0.157,-0.204C0.162,-0.189 0.169,-0.175 0.178,-0.162C0.187,-0.149 0.198,-0.138 0.211,-0.129C0.224,-0.12 0.238,-0.113 0.253,-0.108C0.268,-0.102 0.283,-0.1 0.3,-0.1L0.3,-0ZM0.3,-0.1C0.317,-0.1 0.333,-0.102 0.348,-0.108C0.363,-0.113 0.376,-0.12 0.389,-0.129C0.402,-0.138 0.413,-0.149 0.422,-0.162C0.431,-0.175 0.438,-0.189 0.443,-0.204C0.448,-0.219 0.45,-0.234 0.45,-0.25L0.55,-0.25C0.55,-0.205 0.539,-0.163 0.517,-0.125C0.494,-0.086 0.464,-0.056 0.426,-0.034C0.387,-0.011 0.345,-0 0.3,-0L0.3,-0.1ZM0.15,-0.5L0.15,-0.25L0.05,-0.25L0.05,-0.5L0.15,-0.5ZM0.55,-0.5L0.55,-0.25L0.45,-0.25L0.45,-0.5L0.55,-0.5Z" style="fill-rule:nonzero;"/>
            </g>
            <g transform="matrix(46.393,0,0,46.393,116.906,429.646)">
                <path d="M0.15,-0.5L0.15,-0L0.05,-0L0.05,-0.5L0.15,-0.5ZM0.15,-0.5L0.579,-0.071L0.508,-0L0.079,-0.429L0.15,-0.5ZM0.608,-0.5L0.608,-0L0.508,-0L0.508,-0.5L0.608,-0.5ZM0.608,-0.5L1.037,-0.071L0.966,-0L0.537,-0.429L0.608,-0.5Z" style="fill-rule:nonzero;"/>
            </g>
            <g transform="matrix(46.393,0,0,46.393,167.336,429.646)">
                <path d="M0.55,-0.5C0.641,-0.5 0.724,-0.478 0.801,-0.433C0.877,-0.388 0.938,-0.327 0.983,-0.251C1.028,-0.174 1.05,-0.091 1.05,-0L0.95,-0C0.95,-0.044 0.943,-0.086 0.93,-0.127C0.916,-0.167 0.897,-0.204 0.872,-0.238C0.847,-0.271 0.818,-0.3 0.784,-0.325C0.751,-0.349 0.714,-0.368 0.674,-0.381C0.634,-0.394 0.593,-0.4 0.55,-0.4C0.507,-0.4 0.466,-0.394 0.426,-0.381C0.386,-0.368 0.349,-0.349 0.316,-0.325C0.282,-0.3 0.253,-0.271 0.228,-0.238C0.203,-0.204 0.184,-0.167 0.171,-0.127C0.157,-0.086 0.15,-0.044 0.15,-0L0.05,-0C0.05,-0.091 0.073,-0.174 0.118,-0.251C0.163,-0.327 0.223,-0.388 0.3,-0.433C0.376,-0.478 0.459,-0.5 0.55,-0.5ZM1.45,-0.5C1.541,-0.5 1.624,-0.478 1.701,-0.433C1.777,-0.388 1.838,-0.327 1.883,-0.251C1.928,-0.174 1.95,-0.091 1.95,-0L1.85,-0C1.85,-0.044 1.843,-0.086 1.83,-0.127C1.816,-0.167 1.797,-0.204 1.772,-0.238C1.747,-0.271 1.718,-0.3 1.684,-0.325C1.651,-0.349 1.614,-0.368 1.574,-0.381C1.534,-0.394 1.493,-0.4 1.45,-0.4C1.407,-0.4 1.366,-0.394 1.326,-0.381C1.286,-0.368 1.249,-0.349 1.216,-0.325C1.182,-0.3 1.153,-0.271 1.128,-0.238C1.103,-0.204 1.084,-0.167 1.071,-0.127C1.057,-0.086 1.05,-0.044 1.05,-0L0.95,-0C0.95,-0.091 0.973,-0.174 1.018,-0.251C1.063,-0.327 1.123,-0.388 1.2,-0.433C1.276,-0.478 1.359,-0.5 1.45,-0.5Z" style="fill-rule:nonzero;"/>
            </g>
            <g transform="matrix(46.393,0,0,46.393,260.122,429.646)">
                <path d="M0.15,-0.75L0.15,-0L0.05,-0L0.05,-0.75L0.15,-0.75ZM0.9,-0.4L0.15,-0.4L0.15,-0.5L0.9,-0.5L0.9,-0.4ZM1,-0.5L1,0.25L0.9,0.25L0.9,-0.5L1,-0.5ZM1.75,-0.4L1,-0.4L1,-0.5L1.75,-0.5L1.75,-0.4ZM1.85,-0.5L1.85,0.25L1.75,0.25L1.75,-0.5L1.85,-0.5Z" style="fill-rule:nonzero;"/>
            </g>
            <g transform="matrix(46.393,0,0,46.393,348.268,429.646)">
                <path d="M1.05,-0.4C1.006,-0.4 0.964,-0.393 0.924,-0.38C0.883,-0.366 0.846,-0.347 0.813,-0.322C0.779,-0.297 0.75,-0.268 0.725,-0.234C0.701,-0.201 0.683,-0.164 0.67,-0.124C0.657,-0.084 0.65,-0.043 0.65,-0L0.55,-0C0.55,-0.091 0.573,-0.174 0.618,-0.251C0.663,-0.327 0.723,-0.388 0.8,-0.433C0.876,-0.478 0.959,-0.5 1.05,-0.5L1.05,-0.4ZM0.15,-0.5C0.241,-0.5 0.324,-0.478 0.401,-0.433C0.477,-0.388 0.538,-0.327 0.583,-0.251C0.628,-0.174 0.65,-0.091 0.65,-0L0.55,-0C0.55,-0.043 0.544,-0.084 0.531,-0.124C0.518,-0.164 0.499,-0.201 0.475,-0.234C0.45,-0.268 0.421,-0.297 0.388,-0.322C0.354,-0.347 0.317,-0.366 0.277,-0.38C0.236,-0.393 0.194,-0.4 0.15,-0.4L0.15,-0.5ZM1.15,-0.5L1.15,-0L1.05,-0L1.05,-0.5L1.15,-0.5ZM0.15,-0.5L0.15,-0L0.05,-0L0.05,-0.5L0.15,-0.5Z" style="fill-rule:nonzero;"/>
            </g>
            <g transform="matrix(46.393,0,0,46.393,403.94,429.646)">
                <path d="M0.4,-0.25C0.355,-0.25 0.313,-0.261 0.275,-0.284C0.236,-0.306 0.206,-0.336 0.184,-0.375C0.161,-0.413 0.15,-0.455 0.15,-0.5C0.15,-0.545 0.161,-0.587 0.184,-0.626C0.206,-0.664 0.236,-0.694 0.275,-0.717C0.313,-0.739 0.355,-0.75 0.4,-0.75C0.445,-0.75 0.487,-0.739 0.526,-0.717C0.564,-0.694 0.594,-0.664 0.617,-0.626C0.639,-0.587 0.65,-0.545 0.65,-0.5C0.65,-0.455 0.639,-0.413 0.617,-0.375C0.594,-0.336 0.564,-0.306 0.526,-0.284C0.487,-0.261 0.445,-0.25 0.4,-0.25ZM0.05,-0.5L0.15,-0.5L0.15,-0L0.05,-0L0.05,-0.5ZM0.4,-0.35C0.417,-0.35 0.432,-0.353 0.448,-0.358C0.463,-0.363 0.476,-0.37 0.489,-0.379C0.502,-0.388 0.513,-0.399 0.522,-0.412C0.531,-0.425 0.538,-0.439 0.543,-0.454C0.548,-0.468 0.55,-0.484 0.55,-0.5C0.55,-0.516 0.548,-0.532 0.543,-0.547C0.538,-0.562 0.531,-0.575 0.522,-0.588C0.513,-0.601 0.502,-0.612 0.489,-0.621C0.476,-0.63 0.463,-0.638 0.448,-0.643C0.432,-0.648 0.417,-0.65 0.4,-0.65C0.383,-0.65 0.368,-0.648 0.353,-0.643C0.337,-0.638 0.324,-0.63 0.311,-0.621C0.298,-0.612 0.287,-0.601 0.278,-0.588C0.269,-0.575 0.262,-0.562 0.257,-0.547C0.252,-0.532 0.25,-0.516 0.25,-0.5C0.25,-0.484 0.252,-0.468 0.257,-0.454C0.262,-0.439 0.269,-0.425 0.278,-0.412C0.287,-0.399 0.298,-0.388 0.311,-0.379C0.324,-0.37 0.337,-0.363 0.353,-0.358C0.368,-0.353 0.383,-0.35 0.4,-0.35ZM0.65,-0.1L0.65,-0L0.15,-0L0.15,-0.1L0.65,-0.1Z" style="fill-rule:nonzero;"/>
            </g>
            <g transform="matrix(46.393,0,0,46.393,436.415,429.646)">
                <path d="M0.15,-0L0.15,0.5L0.05,0.5L0.05,-0L0.15,-0ZM0.3,-0.25C0.345,-0.25 0.387,-0.239 0.426,-0.217C0.464,-0.194 0.494,-0.164 0.517,-0.126C0.539,-0.087 0.55,-0.045 0.55,-0L0.45,-0C0.45,-0.027 0.443,-0.053 0.43,-0.076C0.417,-0.098 0.399,-0.117 0.376,-0.13C0.353,-0.143 0.327,-0.15 0.3,-0.15C0.283,-0.15 0.266,-0.147 0.25,-0.142C0.234,-0.136 0.22,-0.128 0.207,-0.117C0.189,-0.103 0.175,-0.086 0.165,-0.066C0.155,-0.045 0.15,-0.023 0.15,-0L0.05,-0C0.05,-0.045 0.061,-0.087 0.084,-0.126C0.106,-0.164 0.136,-0.194 0.175,-0.217C0.213,-0.239 0.255,-0.25 0.3,-0.25Z" style="fill-rule:nonzero;"/>
            </g>
        </g>
        <g transform="matrix(1.43865,0,0,1.43865,2009.07,-1023.12)">
            <g transform="matrix(144,0,0,144,46.6502,792.83)">
                <path d="M0.05,-0.5C0.05,-0.591 0.073,-0.674 0.118,-0.751C0.163,-0.827 0.223,-0.888 0.3,-0.933C0.376,-0.978 0.459,-1 0.55,-1L0.55,-0.9C0.506,-0.9 0.464,-0.893 0.424,-0.88C0.383,-0.866 0.346,-0.847 0.313,-0.822C0.279,-0.797 0.25,-0.768 0.225,-0.734C0.201,-0.701 0.183,-0.664 0.17,-0.624C0.157,-0.584 0.15,-0.543 0.15,-0.5C0.15,-0.457 0.157,-0.416 0.17,-0.376C0.183,-0.336 0.201,-0.299 0.225,-0.266C0.25,-0.232 0.279,-0.203 0.313,-0.178C0.346,-0.153 0.383,-0.134 0.424,-0.121C0.464,-0.107 0.506,-0.1 0.55,-0.1L0.55,-0C0.459,-0 0.376,-0.023 0.3,-0.068C0.223,-0.113 0.163,-0.173 0.118,-0.25C0.073,-0.326 0.05,-0.409 0.05,-0.5Z" style="fill-rule:nonzero;"/>
            </g>
            <g transform="matrix(144,0,0,144,133.05,792.83)">
                <path d="M0.05,-0.25C0.05,-0.295 0.061,-0.337 0.084,-0.376C0.106,-0.414 0.136,-0.444 0.175,-0.467C0.213,-0.489 0.255,-0.5 0.3,-0.5L0.3,-0.4C0.284,-0.4 0.269,-0.398 0.254,-0.393C0.239,-0.388 0.225,-0.381 0.212,-0.372C0.199,-0.363 0.188,-0.352 0.179,-0.339C0.17,-0.326 0.163,-0.313 0.158,-0.298C0.153,-0.283 0.15,-0.267 0.15,-0.25C0.15,-0.233 0.153,-0.218 0.158,-0.203C0.163,-0.188 0.17,-0.174 0.179,-0.161C0.188,-0.148 0.199,-0.137 0.212,-0.128C0.225,-0.119 0.239,-0.112 0.254,-0.107C0.269,-0.102 0.284,-0.1 0.3,-0.1L0.3,-0C0.255,-0 0.213,-0.011 0.175,-0.034C0.136,-0.056 0.106,-0.086 0.084,-0.125C0.061,-0.163 0.05,-0.205 0.05,-0.25ZM0.8,-0.25C0.8,-0.205 0.789,-0.163 0.767,-0.125C0.744,-0.086 0.714,-0.056 0.676,-0.034C0.637,-0.011 0.595,-0 0.55,-0L0.55,-0.1C0.566,-0.1 0.582,-0.102 0.597,-0.107C0.612,-0.112 0.625,-0.119 0.638,-0.128C0.651,-0.137 0.662,-0.148 0.671,-0.161C0.68,-0.174 0.688,-0.188 0.693,-0.203C0.698,-0.218 0.7,-0.233 0.7,-0.25C0.7,-0.267 0.698,-0.283 0.693,-0.298C0.688,-0.313 0.68,-0.326 0.671,-0.339C0.662,-0.352 0.651,-0.363 0.638,-0.372C0.625,-0.381 0.612,-0.388 0.597,-0.393C0.582,-0.398 0.566,-0.4 0.55,-0.4L0.55,-0.5C0.595,-0.5 0.637,-0.489 0.676,-0.467C0.714,-0.444 0.744,-0.414 0.767,-0.376C0.789,-0.337 0.8,-0.295 0.8,-0.25ZM0.55,-0.5L0.55,-0.4L0.3,-0.4L0.3,-0.5L0.55,-0.5ZM0.55,-0.1L0.55,-0L0.3,-0L0.3,-0.1L0.55,-0.1Z" style="fill-rule:nonzero;"/>
            </g>
            <g transform="matrix(144,0,0,144,255.45,792.83)">
                <path d="M0.15,-0.5C0.223,-0.5 0.29,-0.482 0.351,-0.446C0.412,-0.41 0.46,-0.362 0.496,-0.301C0.532,-0.239 0.55,-0.173 0.55,-0.1L0.45,-0.1C0.45,-0.133 0.445,-0.164 0.435,-0.195C0.425,-0.225 0.411,-0.253 0.392,-0.278C0.373,-0.303 0.351,-0.325 0.326,-0.343C0.301,-0.362 0.273,-0.376 0.244,-0.386C0.214,-0.395 0.183,-0.4 0.15,-0.4L0.15,-0.5ZM0.05,-0.5L0.15,-0.5L0.15,-0.1L0.55,-0.1L0.55,-0L0.05,-0L0.05,-0.5Z" style="fill-rule:nonzero;"/>
            </g>
            <g transform="matrix(144,0,0,144,341.85,792.83)">
                <path d="M0.15,-0.5C0.203,-0.5 0.255,-0.492 0.305,-0.476C0.354,-0.459 0.4,-0.436 0.442,-0.406C0.484,-0.375 0.521,-0.339 0.552,-0.297C0.583,-0.255 0.608,-0.209 0.625,-0.158C0.642,-0.107 0.65,-0.055 0.65,-0L0.55,-0C0.55,-0.029 0.547,-0.058 0.541,-0.086C0.535,-0.114 0.526,-0.141 0.515,-0.166C0.503,-0.191 0.489,-0.215 0.472,-0.238C0.447,-0.271 0.418,-0.299 0.385,-0.324C0.352,-0.348 0.315,-0.367 0.275,-0.38C0.235,-0.393 0.193,-0.4 0.15,-0.4L0.15,-0.5ZM0.55,0.1C0.507,0.1 0.465,0.095 0.424,0.084C0.383,0.073 0.345,0.058 0.309,0.038C0.258,0.009 0.213,-0.027 0.174,-0.072C0.135,-0.116 0.104,-0.166 0.083,-0.223C0.061,-0.279 0.05,-0.338 0.05,-0.4L0.15,-0.4C0.15,-0.371 0.153,-0.342 0.159,-0.314C0.165,-0.286 0.174,-0.259 0.186,-0.234C0.197,-0.209 0.211,-0.185 0.228,-0.162C0.253,-0.129 0.282,-0.101 0.315,-0.077C0.348,-0.052 0.385,-0.033 0.425,-0.02C0.465,-0.007 0.507,-0 0.55,-0L0.55,0.1ZM0.65,-0L0.65,0.1L0.55,0.1L0.55,-0L0.65,-0ZM0.15,-0.5L0.15,-0.4L0.05,-0.4L0.05,-0.5L0.15,-0.5Z" style="fill-rule:nonzero;"/>
            </g>
            <g transform="matrix(144,0,0,144,442.65,792.83)">
                <path d="M0.3,-0C0.255,-0 0.213,-0.011 0.175,-0.034C0.136,-0.056 0.106,-0.086 0.084,-0.125C0.061,-0.163 0.05,-0.205 0.05,-0.25C0.05,-0.295 0.061,-0.337 0.084,-0.376C0.106,-0.414 0.136,-0.444 0.175,-0.467C0.213,-0.489 0.255,-0.5 0.3,-0.5C0.345,-0.5 0.387,-0.489 0.426,-0.467C0.464,-0.444 0.494,-0.414 0.517,-0.376C0.539,-0.337 0.55,-0.295 0.55,-0.25C0.55,-0.205 0.539,-0.163 0.517,-0.125C0.494,-0.086 0.464,-0.056 0.426,-0.034C0.387,-0.011 0.345,-0 0.3,-0ZM0.3,-0.1C0.317,-0.1 0.333,-0.102 0.348,-0.108C0.363,-0.113 0.376,-0.12 0.389,-0.129C0.402,-0.138 0.413,-0.149 0.422,-0.162C0.431,-0.175 0.438,-0.189 0.443,-0.204C0.448,-0.219 0.45,-0.234 0.45,-0.25C0.45,-0.266 0.448,-0.282 0.443,-0.297C0.438,-0.312 0.431,-0.325 0.422,-0.338C0.413,-0.351 0.402,-0.362 0.389,-0.371C0.376,-0.38 0.363,-0.388 0.348,-0.393C0.333,-0.398 0.317,-0.4 0.3,-0.4C0.283,-0.4 0.268,-0.398 0.253,-0.393C0.238,-0.388 0.224,-0.38 0.211,-0.371C0.198,-0.362 0.187,-0.351 0.178,-0.338C0.169,-0.325 0.162,-0.312 0.157,-0.297C0.152,-0.282 0.15,-0.266 0.15,-0.25C0.15,-0.234 0.152,-0.219 0.157,-0.204C0.162,-0.189 0.169,-0.175 0.178,-0.162C0.187,-0.149 0.198,-0.138 0.211,-0.129C0.224,-0.12 0.238,-0.113 0.253,-0.108C0.268,-0.102 0.283,-0.1 0.3,-0.1Z" style="fill-rule:nonzero;"/>
            </g>
            <g transform="matrix(144,0,0,144,529.05,792.83)">
                <rect x="0.05" y="-0.75" width="0.1" height="0.75" style="fill-rule:nonzero;"/>
            </g>
            <g transform="matrix(144,0,0,144,46.6502,992.83)">
                <path d="M0.15,-1L0.25,-1L0.25,-0L0.15,-0L0.15,-1ZM0.25,-0.1L0.45,-0.1L0.45,-0L0.25,-0L0.25,-0.1ZM0.05,-0.75L0.35,-0.75L0.35,-0.65L0.05,-0.65L0.05,-0.75Z" style="fill-rule:nonzero;"/>
            </g>
            <g transform="matrix(144,0,0,144,118.65,992.83)">
                <path d="M0.15,-0.5C0.15,-0.456 0.157,-0.414 0.171,-0.374C0.184,-0.333 0.203,-0.296 0.228,-0.263C0.253,-0.229 0.282,-0.2 0.316,-0.175C0.349,-0.151 0.386,-0.133 0.426,-0.12C0.466,-0.107 0.507,-0.1 0.55,-0.1C0.623,-0.1 0.69,-0.118 0.751,-0.154C0.812,-0.19 0.86,-0.239 0.896,-0.3C0.932,-0.361 0.95,-0.427 0.95,-0.5L1.05,-0.5C1.05,-0.409 1.028,-0.326 0.983,-0.25C0.938,-0.173 0.877,-0.113 0.801,-0.068C0.724,-0.023 0.641,-0 0.55,-0C0.459,-0 0.376,-0.023 0.3,-0.068C0.223,-0.113 0.163,-0.173 0.118,-0.25C0.073,-0.326 0.05,-0.409 0.05,-0.5L0.15,-0.5ZM0.95,-0.5L1.05,-0.5L1.05,0.5L0.95,0.5L0.95,-0.5ZM0.05,0.5L0.05,0.4L1.05,0.4L1.05,0.5L0.05,0.5Z" style="fill-rule:nonzero;"/>
            </g>
            <g transform="matrix(144,0,0,144,277.05,992.83)">
                <path d="M0.05,0.5L0.05,-0.5L0.15,-0.5L0.15,0.5L0.05,0.5ZM0.65,-0.5L0.65,-0.4L0.15,-0.4L0.15,-0.5L0.65,-0.5ZM0.65,-0L0.65,0.1L0.15,0.1L0.15,-0L0.65,-0ZM0.55,-0L0.55,-0.5L0.65,-0.5L0.65,-0L0.55,-0Z" style="fill-rule:nonzero;"/>
            </g>
            <g transform="matrix(144,0,0,144,377.85,992.83)">
                <path d="M0.3,-0.25C0.255,-0.25 0.213,-0.261 0.175,-0.284C0.136,-0.306 0.106,-0.336 0.084,-0.375C0.061,-0.413 0.05,-0.455 0.05,-0.5C0.05,-0.545 0.061,-0.587 0.084,-0.626C0.106,-0.664 0.136,-0.694 0.175,-0.717C0.213,-0.739 0.255,-0.75 0.3,-0.75C0.345,-0.75 0.387,-0.739 0.426,-0.717C0.464,-0.694 0.494,-0.664 0.517,-0.626C0.539,-0.587 0.55,-0.545 0.55,-0.5C0.55,-0.455 0.539,-0.413 0.517,-0.375C0.494,-0.336 0.464,-0.306 0.426,-0.284C0.387,-0.261 0.345,-0.25 0.3,-0.25ZM0.3,-0.35C0.317,-0.35 0.333,-0.353 0.348,-0.358C0.363,-0.363 0.376,-0.37 0.389,-0.379C0.402,-0.388 0.413,-0.399 0.422,-0.412C0.431,-0.425 0.438,-0.439 0.443,-0.454C0.448,-0.468 0.45,-0.484 0.45,-0.5C0.45,-0.516 0.448,-0.532 0.443,-0.547C0.438,-0.562 0.431,-0.575 0.422,-0.588C0.413,-0.601 0.402,-0.612 0.389,-0.621C0.376,-0.63 0.363,-0.638 0.348,-0.643C0.333,-0.648 0.317,-0.65 0.3,-0.65C0.283,-0.65 0.268,-0.648 0.253,-0.643C0.238,-0.638 0.224,-0.63 0.211,-0.621C0.198,-0.612 0.187,-0.601 0.178,-0.588C0.169,-0.575 0.162,-0.562 0.157,-0.547C0.152,-0.532 0.15,-0.516 0.15,-0.5C0.15,-0.484 0.152,-0.468 0.157,-0.454C0.162,-0.439 0.169,-0.425 0.178,-0.412C0.187,-0.399 0.198,-0.388 0.211,-0.379C0.224,-0.37 0.238,-0.363 0.253,-0.358C0.268,-0.353 0.283,-0.35 0.3,-0.35ZM0.15,-0.5C0.15,-0.427 0.168,-0.361 0.204,-0.3C0.24,-0.239 0.289,-0.19 0.35,-0.154C0.411,-0.118 0.477,-0.1 0.55,-0.1L0.55,-0C0.459,-0 0.376,-0.023 0.3,-0.068C0.223,-0.113 0.163,-0.173 0.118,-0.25C0.073,-0.326 0.05,-0.409 0.05,-0.5L0.15,-0.5Z" style="fill-rule:nonzero;"/>
            </g>
            <g transform="matrix(144,0,0,144,464.25,992.83)">
                <path d="M0.25,-1L0.25,-0L0.15,-0L0.15,-1L0.25,-1ZM0.45,-1L0.45,-0.9L0.25,-0.9L0.25,-1L0.45,-1ZM0.35,-0.5L0.35,-0.4L0.05,-0.4L0.05,-0.5L0.35,-0.5Z" style="fill-rule:nonzero;"/>
            </g>
            <g transform="matrix(144,0,0,144,536.25,992.83)">
                <path d="M0.3,-0C0.255,-0 0.213,-0.011 0.175,-0.034C0.136,-0.056 0.106,-0.086 0.084,-0.125C0.061,-0.163 0.05,-0.205 0.05,-0.25C0.05,-0.295 0.061,-0.337 0.084,-0.376C0.106,-0.414 0.136,-0.444 0.175,-0.467C0.213,-0.489 0.255,-0.5 0.3,-0.5C0.345,-0.5 0.387,-0.489 0.426,-0.467C0.464,-0.444 0.494,-0.414 0.517,-0.376C0.539,-0.337 0.55,-0.295 0.55,-0.25C0.55,-0.205 0.539,-0.163 0.517,-0.125C0.494,-0.086 0.464,-0.056 0.426,-0.034C0.387,-0.011 0.345,-0 0.3,-0ZM0.3,-0.1C0.317,-0.1 0.333,-0.102 0.348,-0.108C0.363,-0.113 0.376,-0.12 0.389,-0.129C0.402,-0.138 0.413,-0.149 0.422,-0.162C0.431,-0.175 0.438,-0.189 0.443,-0.204C0.448,-0.219 0.45,-0.234 0.45,-0.25C0.45,-0.266 0.448,-0.282 0.443,-0.297C0.438,-0.312 0.431,-0.325 0.422,-0.338C0.413,-0.351 0.402,-0.362 0.389,-0.371C0.376,-0.38 0.363,-0.388 0.348,-0.393C0.333,-0.398 0.317,-0.4 0.3,-0.4C0.283,-0.4 0.268,-0.398 0.253,-0.393C0.238,-0.388 0.224,-0.38 0.211,-0.371C0.198,-0.362 0.187,-0.351 0.178,-0.338C0.169,-0.325 0.162,-0.312 0.157,-0.297C0.152,-0.282 0.15,-0.266 0.15,-0.25C0.15,-0.234 0.152,-0.219 0.157,-0.204C0.162,-0.189 0.169,-0.175 0.178,-0.162C0.187,-0.149 0.198,-0.138 0.211,-0.129C0.224,-0.12 0.238,-0.113 0.253,-0.108C0.268,-0.102 0.283,-0.1 0.3,-0.1ZM0.65,-0.6L0.65,-0L0.55,-0L0.55,-0.6L0.65,-0.6ZM0.65,-0.6L0.65,-0.5L0.05,-0.5L0.05,-0.6L0.65,-0.6Z" style="fill-rule:nonzero;"/>
            </g>
            <g transform="matrix(144,0,0,144,637.05,992.83)">
                <path d="M0.05,-0.25C0.05,-0.295 0.061,-0.337 0.084,-0.376C0.106,-0.414 0.136,-0.444 0.175,-0.467C0.213,-0.489 0.255,-0.5 0.3,-0.5L0.3,-0.4C0.283,-0.4 0.268,-0.398 0.253,-0.393C0.238,-0.388 0.224,-0.38 0.211,-0.371C0.198,-0.362 0.187,-0.351 0.178,-0.338C0.169,-0.325 0.162,-0.312 0.157,-0.297C0.152,-0.282 0.15,-0.266 0.15,-0.25C0.15,-0.234 0.152,-0.219 0.157,-0.204C0.162,-0.189 0.169,-0.175 0.178,-0.162C0.187,-0.149 0.198,-0.138 0.211,-0.129C0.224,-0.12 0.238,-0.113 0.253,-0.108C0.268,-0.102 0.283,-0.1 0.3,-0.1L0.3,-0C0.255,-0 0.213,-0.011 0.175,-0.034C0.136,-0.056 0.106,-0.086 0.084,-0.125C0.061,-0.163 0.05,-0.205 0.05,-0.25Z" style="fill-rule:nonzero;"/>
            </g>
            <g transform="matrix(144,0,0,144,687.45,992.83)">
                <path d="M0.3,-0.25C0.255,-0.25 0.213,-0.261 0.175,-0.284C0.136,-0.306 0.106,-0.336 0.084,-0.375C0.061,-0.413 0.05,-0.455 0.05,-0.5C0.05,-0.545 0.061,-0.587 0.084,-0.626C0.106,-0.664 0.136,-0.694 0.175,-0.717C0.213,-0.739 0.255,-0.75 0.3,-0.75C0.345,-0.75 0.387,-0.739 0.426,-0.717C0.464,-0.694 0.494,-0.664 0.517,-0.626C0.539,-0.587 0.55,-0.545 0.55,-0.5C0.55,-0.455 0.539,-0.413 0.517,-0.375C0.494,-0.336 0.464,-0.306 0.426,-0.284C0.387,-0.261 0.345,-0.25 0.3,-0.25ZM0.3,-0.35C0.317,-0.35 0.333,-0.353 0.348,-0.358C0.363,-0.363 0.376,-0.37 0.389,-0.379C0.402,-0.388 0.413,-0.399 0.422,-0.412C0.431,-0.425 0.438,-0.439 0.443,-0.454C0.448,-0.468 0.45,-0.484 0.45,-0.5C0.45,-0.516 0.448,-0.532 0.443,-0.547C0.438,-0.562 0.431,-0.575 0.422,-0.588C0.413,-0.601 0.402,-0.612 0.389,-0.621C0.376,-0.63 0.363,-0.638 0.348,-0.643C0.333,-0.648 0.317,-0.65 0.3,-0.65C0.283,-0.65 0.268,-0.648 0.253,-0.643C0.238,-0.638 0.224,-0.63 0.211,-0.621C0.198,-0.612 0.187,-0.601 0.178,-0.588C0.169,-0.575 0.162,-0.562 0.157,-0.547C0.152,-0.532 0.15,-0.516 0.15,-0.5C0.15,-0.484 0.152,-0.468 0.157,-0.454C0.162,-0.439 0.169,-0.425 0.178,-0.412C0.187,-0.399 0.198,-0.388 0.211,-0.379C0.224,-0.37 0.238,-0.363 0.253,-0.358C0.268,-0.353 0.283,-0.35 0.3,-0.35ZM0.15,-0.5C0.15,-0.427 0.168,-0.361 0.204,-0.3C0.24,-0.239 0.289,-0.19 0.35,-0.154C0.411,-0.118 0.477,-0.1 0.55,-0.1L0.55,-0C0.459,-0 0.376,-0.023 0.3,-0.068C0.223,-0.113 0.163,-0.173 0.118,-0.25C0.073,-0.326 0.05,-0.409 0.05,-0.5L0.15,-0.5Z" style="fill-rule:nonzero;"/>
            </g>
            <g transform="matrix(144,0,0,144,795.266,1192.83)">
                <path d="M0.05,-0.75C0.05,-0.795 0.061,-0.837 0.084,-0.876C0.106,-0.914 0.136,-0.944 0.175,-0.967C0.213,-0.989 0.255,-1 0.3,-1L0.3,-0.9C0.283,-0.9 0.268,-0.898 0.253,-0.893C0.238,-0.888 0.224,-0.88 0.211,-0.871C0.198,-0.862 0.187,-0.851 0.178,-0.838C0.169,-0.825 0.162,-0.812 0.157,-0.797C0.152,-0.782 0.15,-0.766 0.15,-0.75L0.05,-0.75ZM0.3,-1L0.4,-1L0.4,-0L0.3,-0L0.3,-1Z" style="fill-rule:nonzero;"/>
            </g>
            <g transform="matrix(144,0,0,144,860.066,1192.83)">
                <path d="M0.05,-0.5C0.05,-0.591 0.073,-0.674 0.118,-0.751C0.163,-0.827 0.223,-0.888 0.3,-0.933C0.376,-0.978 0.459,-1 0.55,-1L0.55,-0.9C0.512,-0.9 0.475,-0.895 0.44,-0.885C0.404,-0.874 0.371,-0.86 0.34,-0.841C0.309,-0.822 0.281,-0.799 0.256,-0.772C0.234,-0.748 0.215,-0.721 0.199,-0.693C0.183,-0.664 0.171,-0.633 0.163,-0.601C0.154,-0.568 0.15,-0.535 0.15,-0.5C0.15,-0.465 0.154,-0.432 0.163,-0.4C0.171,-0.367 0.183,-0.337 0.199,-0.308C0.215,-0.279 0.234,-0.252 0.256,-0.228C0.281,-0.201 0.309,-0.179 0.34,-0.16C0.371,-0.14 0.404,-0.126 0.44,-0.116C0.475,-0.105 0.512,-0.1 0.55,-0.1L0.55,-0C0.459,-0 0.376,-0.023 0.3,-0.068C0.223,-0.113 0.163,-0.173 0.118,-0.25C0.073,-0.326 0.05,-0.409 0.05,-0.5ZM1.3,-0.5C1.3,-0.409 1.278,-0.326 1.233,-0.25C1.188,-0.173 1.127,-0.113 1.051,-0.068C0.974,-0.023 0.891,-0 0.8,-0L0.8,-0.1C0.838,-0.1 0.875,-0.105 0.911,-0.116C0.946,-0.126 0.979,-0.14 1.01,-0.16C1.041,-0.179 1.069,-0.201 1.094,-0.228C1.116,-0.252 1.135,-0.279 1.151,-0.308C1.167,-0.337 1.179,-0.367 1.188,-0.4C1.196,-0.432 1.2,-0.465 1.2,-0.5C1.2,-0.535 1.196,-0.568 1.188,-0.601C1.179,-0.633 1.167,-0.664 1.151,-0.693C1.135,-0.721 1.116,-0.748 1.094,-0.772C1.069,-0.799 1.041,-0.822 1.01,-0.841C0.979,-0.86 0.946,-0.874 0.911,-0.885C0.875,-0.895 0.838,-0.9 0.8,-0.9L0.8,-1C0.891,-1 0.974,-0.978 1.051,-0.933C1.127,-0.888 1.188,-0.827 1.233,-0.751C1.278,-0.674 1.3,-0.591 1.3,-0.5ZM0.8,-1L0.8,-0.9L0.55,-0.9L0.55,-1L0.8,-1ZM0.8,-0.1L0.8,-0L0.55,-0L0.55,-0.1L0.8,-0.1ZM1.076,-0.18L1.005,-0.109L0.284,-0.831L0.354,-0.902L1.076,-0.18Z" style="fill-rule:nonzero;"/>
            </g>
            <g transform="matrix(144,0,0,144,1054.47,1192.83)">
                <path d="M0.121,-0L0.05,-0.071L0.729,-0.75L0.8,-0.679L0.121,-0Z" style="fill-rule:nonzero;"/>
            </g>
            <g transform="matrix(144,0,0,144,1176.87,1192.83)">
                <path d="M0.05,-0.75C0.05,-0.795 0.061,-0.837 0.084,-0.876C0.106,-0.914 0.136,-0.944 0.175,-0.967C0.213,-0.989 0.255,-1 0.3,-1L0.3,-0.9C0.283,-0.9 0.268,-0.898 0.253,-0.893C0.238,-0.888 0.224,-0.88 0.211,-0.871C0.198,-0.862 0.187,-0.851 0.178,-0.838C0.169,-0.825 0.162,-0.812 0.157,-0.797C0.152,-0.782 0.15,-0.766 0.15,-0.75L0.05,-0.75ZM0.3,-1L0.4,-1L0.4,-0L0.3,-0L0.3,-1Z" style="fill-rule:nonzero;"/>
            </g>
            <g transform="matrix(144,0,0,144,1241.67,1192.83)">
                <path d="M0.05,-0.5C0.05,-0.591 0.073,-0.674 0.118,-0.751C0.163,-0.827 0.223,-0.888 0.3,-0.933C0.376,-0.978 0.459,-1 0.55,-1L0.55,-0.9C0.512,-0.9 0.475,-0.895 0.44,-0.885C0.404,-0.874 0.371,-0.86 0.34,-0.841C0.309,-0.822 0.281,-0.799 0.256,-0.772C0.234,-0.748 0.215,-0.721 0.199,-0.693C0.183,-0.664 0.171,-0.633 0.163,-0.601C0.154,-0.568 0.15,-0.535 0.15,-0.5C0.15,-0.465 0.154,-0.432 0.163,-0.4C0.171,-0.367 0.183,-0.337 0.199,-0.308C0.215,-0.279 0.234,-0.252 0.256,-0.228C0.281,-0.201 0.309,-0.179 0.34,-0.16C0.371,-0.14 0.404,-0.126 0.44,-0.116C0.475,-0.105 0.512,-0.1 0.55,-0.1L0.55,-0C0.459,-0 0.376,-0.023 0.3,-0.068C0.223,-0.113 0.163,-0.173 0.118,-0.25C0.073,-0.326 0.05,-0.409 0.05,-0.5ZM1.3,-0.5C1.3,-0.409 1.278,-0.326 1.233,-0.25C1.188,-0.173 1.127,-0.113 1.051,-0.068C0.974,-0.023 0.891,-0 0.8,-0L0.8,-0.1C0.838,-0.1 0.875,-0.105 0.911,-0.116C0.946,-0.126 0.979,-0.14 1.01,-0.16C1.041,-0.179 1.069,-0.201 1.094,-0.228C1.116,-0.252 1.135,-0.279 1.151,-0.308C1.167,-0.337 1.179,-0.367 1.188,-0.4C1.196,-0.432 1.2,-0.465 1.2,-0.5C1.2,-0.535 1.196,-0.568 1.188,-0.601C1.179,-0.633 1.167,-0.664 1.151,-0.693C1.135,-0.721 1.116,-0.748 1.094,-0.772C1.069,-0.799 1.041,-0.822 1.01,-0.841C0.979,-0.86 0.946,-0.874 0.911,-0.885C0.875,-0.895 0.838,-0.9 0.8,-0.9L0.8,-1C0.891,-1 0.974,-0.978 1.051,-0.933C1.127,-0.888 1.188,-0.827 1.233,-0.751C1.278,-0.674 1.3,-0.591 1.3,-0.5ZM0.8,-1L0.8,-0.9L0.55,-0.9L0.55,-1L0.8,-1ZM0.8,-0.1L0.8,-0L0.55,-0L0.55,-0.1L0.8,-0.1ZM1.076,-0.18L1.005,-0.109L0.284,-0.831L0.354,-0.902L1.076,-0.18Z" style="fill-rule:nonzero;"/>
            </g>
        </g>
    </g>
</svg>
