<?xml version="1.0" encoding="UTF-8" standalone="no"?>
<!DOCTYPE svg PUBLIC "-//W3C//DTD SVG 1.1//EN" "http://www.w3.org/Graphics/SVG/1.1/DTD/svg11.dtd">
<svg width="100%" height="100%" viewBox="0 0 1440 900" version="1.1" xmlns="http://www.w3.org/2000/svg" xmlns:xlink="http://www.w3.org/1999/xlink" xml:space="preserve" xmlns:serif="http://www.serif.com/" style="fill-rule:evenodd;clip-rule:evenodd;stroke-linejoin:round;stroke-miterlimit:2;">
    <g transform="matrix(3.10392,0,0,3.10392,-329.556,-1161.13)">
        <g id="Trimmen">
            <g>
                <g transform="matrix(72,0,0,72,49.6365,429.646)">
                    <path d="M0.441,-0.64L0.297,-0.64L-0.01,-0L0.134,-0L0.222,-0.184L0.514,-0.184L0.602,-0L0.746,-0L0.441,-0.64ZM0.508,-0.198L0.229,-0.198L0.369,-0.489L0.508,-0.198Z" style="fill-rule:nonzero;"/>
                </g>
                <g transform="matrix(72,0,0,72,100.469,429.646)">
                    <path d="M0.336,-0.32C0.469,-0.333 0.632,-0.385 0.632,-0.486C0.632,-0.596 0.489,-0.64 0.245,-0.64L0.05,-0.64L0.05,-0L0.245,-0C0.489,-0 0.632,-0.044 0.632,-0.154C0.632,-0.255 0.469,-0.304 0.336,-0.32ZM0.245,-0.52C0.439,-0.52 0.467,-0.484 0.467,-0.437C0.467,-0.387 0.401,-0.331 0.21,-0.325L0.21,-0.52L0.245,-0.52ZM0.21,-0.12L0.21,-0.313C0.401,-0.307 0.467,-0.253 0.467,-0.206C0.467,-0.162 0.439,-0.12 0.245,-0.12L0.21,-0.12Z" style="fill-rule:nonzero;"/>
                </g>
                <g transform="matrix(72,0,0,72,147.413,429.646)">
                    <path d="M0.452,-0.119C0.311,-0.119 0.2,-0.19 0.2,-0.321C0.2,-0.451 0.311,-0.52 0.452,-0.52C0.517,-0.52 0.582,-0.501 0.656,-0.449L0.727,-0.562C0.67,-0.609 0.557,-0.65 0.445,-0.65C0.218,-0.65 0.041,-0.52 0.041,-0.321C0.041,-0.121 0.218,0.01 0.445,0.01C0.557,0.01 0.67,-0.03 0.727,-0.077L0.656,-0.188C0.582,-0.138 0.517,-0.119 0.452,-0.119Z" style="fill-rule:nonzero;"/>
                </g>
                <g transform="matrix(72,0,0,72,202.133,429.646)">
                    <path d="M0.3,-0.64L0.05,-0.64L0.05,-0L0.3,-0C0.546,-0 0.702,-0.151 0.702,-0.32C0.702,-0.489 0.546,-0.64 0.3,-0.64ZM0.21,-0.124L0.21,-0.516L0.3,-0.516C0.438,-0.516 0.535,-0.466 0.535,-0.32C0.535,-0.174 0.438,-0.124 0.3,-0.124L0.21,-0.124Z" style="fill-rule:nonzero;"/>
                </g>
                <g transform="matrix(72,0,0,72,255.413,429.646)">
                    <path d="M0.573,-0L0.573,-0.11L0.209,-0.11L0.209,-0.27L0.5,-0.27L0.53,-0.37L0.21,-0.37L0.209,-0.53L0.573,-0.53L0.573,-0.64L0.05,-0.64L0.05,-0L0.573,-0Z" style="fill-rule:nonzero;"/>
                </g>
                <g transform="matrix(72,0,0,72,297.173,429.646)">
                    <path d="M0.556,-0.54L0.556,-0.64L0.05,-0.64L0.05,-0L0.21,-0L0.21,-0.27L0.496,-0.27L0.526,-0.37L0.21,-0.37L0.21,-0.54L0.556,-0.54Z" style="fill-rule:nonzero;"/>
                </g>
                <g transform="matrix(72,0,0,72,337.781,429.646)">
                    <path d="M0.585,-0.341C0.586,-0.329 0.587,-0.318 0.587,-0.307L0.318,-0.307L0.318,-0.293L0.587,-0.293C0.581,-0.175 0.499,-0.12 0.389,-0.12C0.268,-0.12 0.17,-0.19 0.17,-0.321C0.17,-0.451 0.271,-0.521 0.405,-0.521C0.477,-0.521 0.548,-0.501 0.635,-0.446L0.703,-0.565C0.647,-0.607 0.53,-0.65 0.415,-0.65C0.178,-0.65 0.011,-0.52 0.011,-0.321C0.011,-0.121 0.193,0.01 0.392,0.01C0.532,0.01 0.762,-0.073 0.74,-0.341L0.585,-0.341Z" style="fill-rule:nonzero;"/>
                </g>
                <g transform="matrix(72,0,0,72,391.925,429.646)">
                    <path d="M0.569,-0.64L0.569,-0.37L0.21,-0.37L0.209,-0.64L0.05,-0.64L0.05,-0L0.21,-0L0.21,-0.27L0.569,-0.27L0.569,-0L0.729,-0L0.729,-0.64L0.569,-0.64Z" style="fill-rule:nonzero;"/>
                </g>
                <g transform="matrix(72,0,0,72,448.013,429.646)">
                    <rect x="0.08" y="-0.64" width="0.16" height="0.64" style="fill-rule:nonzero;"/>
                </g>
                <g transform="matrix(72,0,0,72,471.053,429.646)">
                    <path d="M0.178,-0.64L0.178,-0.03C0.178,0.008 0.168,0.02 0.086,0.02L-0.025,0.02L-0.025,0.12L0.136,0.12C0.286,0.12 0.339,0.084 0.339,0.013L0.339,-0.64L0.178,-0.64Z" style="fill-rule:nonzero;"/>
                </g>
                <g transform="matrix(72,0,0,72,499.061,429.646)">
                    <path d="M0.659,-0C0.441,-0.074 0.256,-0.222 0.222,-0.349L0.392,-0.349L0.639,-0.64L0.449,-0.64L0.21,-0.358L0.21,-0.64L0.05,-0.64L0.05,-0L0.21,-0L0.21,-0.33C0.229,-0.216 0.282,-0.083 0.334,-0L0.659,-0Z" style="fill-rule:nonzero;"/>
                </g>
                <g transform="matrix(72,0,0,72,545.141,429.646)">
                    <path d="M0.21,-0.11L0.21,-0.64L0.05,-0.64L0.05,-0L0.483,-0L0.483,-0.11L0.21,-0.11Z" style="fill-rule:nonzero;"/>
                </g>
                <g transform="matrix(72,0,0,72,581.069,429.646)">
                    <path d="M0.73,-0.64L0.59,-0.64L0.597,-0.597L0.415,-0.016L0.233,-0.597L0.24,-0.64L0.1,-0.64L0,-0L0.14,-0L0.227,-0.555L0.4,-0L0.43,-0L0.603,-0.555L0.69,-0L0.83,-0L0.73,-0.64Z" style="fill-rule:nonzero;"/>
                </g>
                <g transform="matrix(72,0,0,72,640.829,429.646)">
                    <path d="M0.528,-0.035C0.429,-0.035 0.317,-0.134 0.371,-0.317C0.434,-0.532 0.317,-0.623 0.21,-0.623L0.21,-0.64L0.05,-0.64L0.05,-0L0.21,-0L0.21,-0.607C0.305,-0.607 0.416,-0.528 0.355,-0.324C0.297,-0.13 0.418,-0.018 0.528,-0.018L0.528,-0L0.688,-0L0.688,-0.64L0.528,-0.64L0.528,-0.035Z" style="fill-rule:nonzero;"/>
                </g>
                <g transform="matrix(72,0,0,72,49.6365,501.646)">
                    <path d="M0.406,0.01C0.627,0.01 0.785,-0.126 0.785,-0.32C0.785,-0.512 0.627,-0.65 0.406,-0.65C0.186,-0.65 0.03,-0.512 0.03,-0.32C0.03,-0.126 0.186,0.01 0.406,0.01ZM0.406,-0.112C0.279,-0.112 0.187,-0.205 0.187,-0.32C0.187,-0.434 0.279,-0.528 0.406,-0.528C0.535,-0.528 0.627,-0.434 0.627,-0.32C0.627,-0.205 0.535,-0.112 0.406,-0.112Z" style="fill-rule:nonzero;"/>
                </g>
                <g transform="matrix(72,0,0,72,108.317,501.646)">
                    <path d="M0.375,-0.64L0.05,-0.64L0.05,-0L0.21,-0L0.21,-0.293L0.41,-0.293C0.525,-0.293 0.627,-0.338 0.627,-0.466C0.627,-0.583 0.546,-0.64 0.375,-0.64ZM0.21,-0.307L0.21,-0.5L0.385,-0.5C0.471,-0.5 0.51,-0.469 0.51,-0.411C0.51,-0.345 0.474,-0.307 0.38,-0.307L0.21,-0.307Z" style="fill-rule:nonzero;"/>
                </g>
                <g transform="matrix(72,0,0,72,154.541,501.646)">
                    <path d="M0.71,0.079C0.623,0.079 0.534,0.059 0.475,0.006C0.661,-0.019 0.788,-0.146 0.788,-0.32C0.788,-0.512 0.63,-0.65 0.409,-0.65C0.189,-0.65 0.033,-0.512 0.033,-0.32C0.033,-0.126 0.189,0.01 0.409,0.01L0.411,0.01C0.448,0.141 0.541,0.2 0.71,0.2L0.81,0.2L0.81,0.079L0.71,0.079ZM0.19,-0.32C0.19,-0.434 0.282,-0.528 0.409,-0.528C0.538,-0.528 0.63,-0.434 0.63,-0.32C0.63,-0.205 0.538,-0.112 0.409,-0.112C0.406,-0.129 0.404,-0.147 0.404,-0.166L0.404,-0.236L0.39,-0.236L0.39,-0.166C0.39,-0.147 0.39,-0.13 0.391,-0.113C0.274,-0.121 0.19,-0.21 0.19,-0.32Z" style="fill-rule:nonzero;"/>
                </g>
                <g transform="matrix(72,0,0,72,210.701,501.646)">
                    <path d="M0.567,-0.141C0.384,-0.141 0.283,-0.17 0.268,-0.293L0.41,-0.293C0.525,-0.293 0.627,-0.338 0.627,-0.466C0.627,-0.583 0.546,-0.64 0.375,-0.64L0.05,-0.64L0.05,-0L0.21,-0L0.21,-0.293L0.254,-0.293C0.268,-0.084 0.323,-0 0.567,-0L0.637,-0L0.637,-0.141L0.567,-0.141ZM0.385,-0.5C0.471,-0.5 0.51,-0.469 0.51,-0.411C0.51,-0.345 0.474,-0.307 0.38,-0.307L0.21,-0.307L0.21,-0.5L0.385,-0.5Z" style="fill-rule:nonzero;"/>
                </g>
                <g transform="matrix(72,0,0,72,256.925,501.646)">
                    <path d="M-0.02,-0.122C0.062,-0.05 0.206,0.01 0.348,0.01C0.518,0.01 0.636,-0.045 0.636,-0.17C0.636,-0.275 0.531,-0.35 0.357,-0.382C0.237,-0.404 0.208,-0.436 0.208,-0.465C0.208,-0.502 0.254,-0.526 0.348,-0.526C0.425,-0.526 0.515,-0.504 0.603,-0.45L0.667,-0.563C0.603,-0.607 0.474,-0.65 0.344,-0.65C0.154,-0.65 0.041,-0.582 0.041,-0.475C0.041,-0.378 0.149,-0.298 0.297,-0.271C0.435,-0.246 0.466,-0.22 0.466,-0.18C0.466,-0.138 0.425,-0.12 0.351,-0.12C0.24,-0.12 0.132,-0.169 0.069,-0.222L-0.02,-0.122Z" style="fill-rule:nonzero;"/>
                </g>
                <g transform="matrix(72,0,0,72,303.509,501.646)">
                    <path d="M0.618,-0.64L0.02,-0.64L0.02,-0.53L0.239,-0.53L0.239,-0L0.399,-0L0.399,-0.53L0.618,-0.53L0.618,-0.64Z" style="fill-rule:nonzero;"/>
                </g>
                <g transform="matrix(72,0,0,72,349.445,501.646)">
                    <path d="M0.637,-0.337C0.637,-0.202 0.579,-0.121 0.421,-0.121C0.269,-0.121 0.21,-0.203 0.21,-0.337L0.21,-0.64L0.05,-0.64L0.05,-0.337C0.05,-0.14 0.18,0.01 0.421,0.01C0.693,0.01 0.797,-0.14 0.797,-0.337L0.797,-0.64L0.637,-0.64L0.637,-0.337Z" style="fill-rule:nonzero;"/>
                </g>
                <g transform="matrix(72,0,0,72,410.429,501.646)">
                    <path d="M0.283,-0.018C0.155,-0.122 0.161,-0.446 0.301,-0.64L0.032,-0.64C-0.002,-0.295 0.12,-0.115 0.274,-0L0.43,-0L0.757,-0.64L0.592,-0.64L0.283,-0.018Z" style="fill-rule:nonzero;"/>
                </g>
                <g transform="matrix(72,0,0,72,462.773,501.646)">
                    <path d="M0.51,-0.5L0.492,-0.5L0.413,-0.096L0.198,-0.64L-0.01,-0.64L0.266,-0L0.451,-0L0.426,-0.063L0.501,-0.452L0.573,-0.059L0.549,-0L0.699,-0L0.975,-0.64L0.812,-0.64L0.587,-0.092L0.51,-0.5Z" style="fill-rule:nonzero;"/>
                </g>
                <g transform="matrix(72,0,0,72,532.253,501.646)">
                    <path d="M0.01,-0L0.223,-0L0.707,-0.64L0.494,-0.64L0.01,-0ZM0.271,-0.361C0.308,-0.409 0.327,-0.462 0.327,-0.508C0.327,-0.582 0.278,-0.64 0.171,-0.64L0.036,-0.64L0.036,-0.5L0.131,-0.5C0.231,-0.5 0.285,-0.477 0.285,-0.431C0.285,-0.413 0.28,-0.391 0.263,-0.367L0.271,-0.361ZM0.449,-0.282C0.413,-0.234 0.39,-0.177 0.39,-0.122C0.39,-0.057 0.435,-0 0.572,-0L0.673,-0L0.673,-0.14L0.578,-0.14C0.472,-0.14 0.435,-0.171 0.435,-0.21C0.435,-0.232 0.443,-0.255 0.457,-0.276L0.449,-0.282Z" style="fill-rule:nonzero;"/>
                </g>
                <g transform="matrix(72,0,0,72,583.877,501.646)">
                    <path d="M0.455,-0.396C0.411,-0.321 0.362,-0.294 0.324,-0.294C0.226,-0.294 0.192,-0.477 0.249,-0.64L0.005,-0.64C0.033,-0.407 0.152,-0.262 0.284,-0.262C0.329,-0.262 0.375,-0.278 0.417,-0.323L0.252,-0L0.417,-0L0.744,-0.64L0.579,-0.64L0.455,-0.396Z" style="fill-rule:nonzero;"/>
                </g>
                <g transform="matrix(72,0,0,72,636.005,501.646)">
                    <path d="M0.339,-0.308C0.522,-0.262 0.594,-0.381 0.594,-0.52L0.614,-0.52L0.614,-0.64L0.01,-0.64L0.01,-0.52L0.579,-0.52C0.579,-0.396 0.516,-0.28 0.344,-0.322C0.156,-0.368 0.03,-0.255 0.03,-0.12L0.01,-0.12L0.01,-0L0.614,-0L0.614,-0.12L0.045,-0.12C0.045,-0.24 0.162,-0.352 0.339,-0.308Z" style="fill-rule:nonzero;"/>
                </g>
                <g transform="matrix(72,0,0,72,49.6365,573.646)">
                    <path d="M0.353,-0.51C0.241,-0.51 0.128,-0.474 0.047,-0.382L0.151,-0.296C0.204,-0.356 0.283,-0.384 0.357,-0.384C0.413,-0.384 0.456,-0.368 0.479,-0.334L0.227,-0.189C0.224,-0.2 0.223,-0.213 0.223,-0.226L0.022,-0.226C0.022,-0.086 0.104,0.01 0.228,0.01C0.375,0.01 0.511,-0.129 0.511,-0.268L0.525,-0.268C0.525,-0.179 0.476,-0.08 0.41,-0L0.625,-0L0.625,-0.226C0.625,-0.42 0.534,-0.51 0.353,-0.51ZM0.347,-0.11C0.288,-0.11 0.248,-0.132 0.232,-0.175L0.486,-0.321C0.493,-0.307 0.497,-0.289 0.497,-0.268C0.497,-0.153 0.415,-0.11 0.347,-0.11Z" style="fill-rule:nonzero;"/>
                </g>
                <g transform="matrix(72,0,0,72,97.5165,573.646)">
                    <path d="M0.4,-0.51C0.328,-0.51 0.321,-0.462 0.21,-0.335L0.21,-0.64L0.05,-0.64L0.05,-0L0.21,-0L0.21,-0.308C0.253,-0.345 0.319,-0.361 0.383,-0.361C0.5,-0.361 0.557,-0.299 0.557,-0.197C0.557,-0.082 0.491,-0.008 0.385,-0.008C0.335,-0.008 0.283,-0.028 0.24,-0.056L0.233,-0.046C0.276,-0.013 0.341,0.01 0.4,0.01C0.541,0.01 0.668,-0.067 0.668,-0.244C0.668,-0.408 0.56,-0.51 0.4,-0.51Z" style="fill-rule:nonzero;"/>
                </g>
                <g transform="matrix(72,0,0,72,146.333,573.646)">
                    <path d="M0.547,-0.186C0.479,-0.126 0.418,-0.104 0.34,-0.104C0.254,-0.104 0.155,-0.146 0.156,-0.25C0.155,-0.354 0.254,-0.396 0.34,-0.396C0.414,-0.396 0.469,-0.377 0.537,-0.334L0.602,-0.424C0.531,-0.479 0.441,-0.51 0.34,-0.51C0.17,-0.51 0.012,-0.411 0.012,-0.25C0.012,-0.089 0.17,0.01 0.34,0.01C0.461,0.01 0.541,-0.036 0.612,-0.096L0.547,-0.186Z" style="fill-rule:nonzero;"/>
                </g>
                <g transform="matrix(72,0,0,72,190.973,573.646)">
                    <path d="M0.517,-0.64L0.517,-0.204C0.476,-0.159 0.403,-0.139 0.339,-0.139C0.247,-0.139 0.186,-0.2 0.186,-0.283C0.186,-0.398 0.256,-0.476 0.355,-0.476C0.392,-0.476 0.432,-0.466 0.475,-0.438L0.482,-0.448C0.439,-0.481 0.383,-0.51 0.301,-0.51C0.174,-0.51 0.047,-0.433 0.047,-0.256C0.047,-0.092 0.155,0.01 0.315,0.01C0.39,0.01 0.394,-0.042 0.517,-0.18L0.517,-0L0.677,-0L0.677,-0.64L0.517,-0.64Z" style="fill-rule:nonzero;"/>
                </g>
                <g transform="matrix(72,0,0,72,243.317,573.646)">
                    <path d="M0.374,-0.122C0.266,-0.122 0.173,-0.169 0.171,-0.26L0.501,-0.26C0.499,-0.247 0.495,-0.234 0.49,-0.22L0.665,-0.22C0.706,-0.38 0.59,-0.51 0.347,-0.51C0.152,-0.51 0.017,-0.415 0.017,-0.262C0.017,-0.101 0.169,0.01 0.374,0.01C0.5,0.01 0.59,-0.033 0.669,-0.093L0.58,-0.194C0.52,-0.149 0.447,-0.122 0.374,-0.122ZM0.347,-0.41C0.441,-0.41 0.511,-0.364 0.503,-0.274L0.171,-0.274C0.176,-0.349 0.238,-0.41 0.347,-0.41Z" style="fill-rule:nonzero;"/>
                </g>
                <g transform="matrix(72,0,0,72,292.997,573.646)">
                    <path d="M0.006,-0.545C0.006,-0.459 0.112,-0.42 0.268,-0.42L0.268,-0.404C0.128,-0.404 0.072,-0.42 0.022,-0.452L0.022,-0.336L0.107,-0.336L0.107,-0L0.267,-0L0.267,-0.336L0.362,-0.336L0.362,-0.436L0.268,-0.436C0.117,-0.436 0.079,-0.466 0.079,-0.498C0.079,-0.52 0.097,-0.53 0.133,-0.53L0.368,-0.53L0.392,-0.64L0.17,-0.64C0.034,-0.64 0.006,-0.59 0.006,-0.545Z" style="fill-rule:nonzero;"/>
                </g>
                <g transform="matrix(72,0,0,72,321.797,573.646)">
                    <path d="M0.464,-0.64L0.415,-0.5L0.559,-0.5L0.608,-0.64L0.464,-0.64ZM0.111,-0.174C0.158,-0.144 0.221,-0.126 0.292,-0.126C0.455,-0.126 0.565,-0.206 0.565,-0.319C0.565,-0.438 0.441,-0.51 0.292,-0.51C0.134,-0.51 0.022,-0.431 0.022,-0.319C0.022,-0.264 0.051,-0.216 0.099,-0.182C0.048,-0.141 0.017,-0.081 0.017,-0.021C0.017,0.004 0.022,0.028 0.033,0.051L-0.017,0.079L0.059,0.21L0.145,0.16C0.195,0.185 0.258,0.2 0.329,0.2C0.513,0.2 0.565,0.13 0.565,0.039C0.565,-0.066 0.495,-0.099 0.405,-0.099C0.338,-0.099 0.26,-0.078 0.189,-0.038L0.067,0.031C0.053,0.012 0.045,-0.012 0.045,-0.042C0.045,-0.087 0.068,-0.135 0.111,-0.174ZM0.292,-0.424C0.376,-0.424 0.437,-0.377 0.437,-0.319C0.437,-0.258 0.376,-0.212 0.292,-0.212C0.209,-0.212 0.149,-0.258 0.149,-0.319C0.149,-0.377 0.209,-0.424 0.292,-0.424ZM0.504,-0.021C0.533,-0.021 0.541,-0.01 0.541,0.01C0.541,0.049 0.503,0.1 0.329,0.1C0.302,0.1 0.276,0.099 0.252,0.098L0.317,0.06C0.391,0.017 0.449,-0.021 0.504,-0.021Z" style="fill-rule:nonzero;"/>
                </g>
                <g transform="matrix(72,0,0,72,363.917,573.646)">
                    <path d="M0.51,-0.52C0.326,-0.52 0.198,-0.4 0.194,-0.246L0.174,-0.246L0.174,-0.64L0.05,-0.64L0.05,-0L0.21,-0L0.21,-0.24C0.21,-0.375 0.306,-0.47 0.411,-0.47C0.482,-0.47 0.513,-0.429 0.513,-0.318L0.513,-0L0.673,-0L0.673,-0.345C0.673,-0.491 0.576,-0.52 0.51,-0.52Z" style="fill-rule:nonzero;"/>
                </g>
                <g transform="matrix(72,0,0,72,415.253,573.646)">
                    <path d="M0.155,-0.5C0.232,-0.5 0.295,-0.536 0.295,-0.581C0.295,-0.625 0.232,-0.66 0.155,-0.66C0.077,-0.66 0.015,-0.625 0.015,-0.581C0.015,-0.536 0.077,-0.5 0.155,-0.5ZM0.075,-0L0.235,-0L0.235,-0.46L0.075,-0.46L0.075,-0Z" style="fill-rule:nonzero;"/>
                </g>
                <g transform="matrix(72,0,0,72,437.573,573.646)">
                    <path d="M0.151,-0.66C0.073,-0.66 0.011,-0.625 0.011,-0.581C0.011,-0.536 0.073,-0.5 0.151,-0.5C0.228,-0.5 0.291,-0.536 0.291,-0.581C0.291,-0.625 0.228,-0.66 0.151,-0.66ZM0.067,0.02C0.067,0.058 0.057,0.07 0.015,0.07L-0.071,0.07L-0.071,0.15L0.015,0.15C0.175,0.15 0.228,0.114 0.228,0.043L0.228,-0.46L0.067,-0.46L0.067,0.02Z" style="fill-rule:nonzero;"/>
                </g>
                <g transform="matrix(72,0,0,72,458.813,573.646)">
                    <path d="M0.406,-0.31L0.508,-0.5L0.279,-0.5L0.192,-0.333L0.192,-0.64L0.032,-0.64L0.032,-0L0.192,-0L0.192,-0.27C0.215,-0.139 0.26,-0.066 0.327,-0L0.628,-0C0.397,-0.065 0.221,-0.172 0.201,-0.31L0.406,-0.31Z" style="fill-rule:nonzero;"/>
                </g>
                <g transform="matrix(72,0,0,72,498.053,573.646)">
                    <path d="M0.06,-0.676L0.06,-0L0.22,-0L0.22,-0.7L0.06,-0.676Z" style="fill-rule:nonzero;"/>
                </g>
                <g transform="matrix(72,0,0,72,518.213,573.646)">
                    <path d="M0.874,-0.51C0.732,-0.51 0.617,-0.368 0.617,-0.191L0.597,-0.191L0.597,-0.299C0.597,-0.465 0.531,-0.51 0.422,-0.51C0.294,-0.51 0.184,-0.397 0.184,-0.24L0.168,-0.24C0.168,-0.379 0.232,-0.459 0.307,-0.5L0.04,-0.5L0.04,-0L0.2,-0L0.2,-0.24C0.2,-0.375 0.307,-0.422 0.372,-0.422C0.449,-0.422 0.473,-0.394 0.473,-0.285L0.473,-0L0.633,-0L0.633,-0.191C0.633,-0.339 0.701,-0.422 0.803,-0.422C0.867,-0.422 0.906,-0.394 0.906,-0.285L0.906,-0L1.066,-0L1.066,-0.317C1.066,-0.442 0.993,-0.51 0.874,-0.51Z" style="fill-rule:nonzero;"/>
                </g>
                <g transform="matrix(72,0,0,72,597.845,573.646)">
                    <path d="M0.5,-0.52C0.314,-0.52 0.184,-0.397 0.184,-0.24L0.168,-0.24C0.168,-0.379 0.241,-0.463 0.317,-0.5L0.04,-0.5L0.04,-0L0.2,-0L0.2,-0.24C0.2,-0.375 0.296,-0.47 0.401,-0.47C0.472,-0.47 0.503,-0.429 0.503,-0.317L0.503,-0L0.663,-0L0.663,-0.345C0.663,-0.491 0.566,-0.52 0.5,-0.52Z" style="fill-rule:nonzero;"/>
                </g>
                <g transform="matrix(72,0,0,72,648.461,573.646)">
                    <path d="M0.338,0.01C0.525,0.01 0.658,-0.098 0.658,-0.251C0.658,-0.403 0.525,-0.51 0.338,-0.51C0.152,-0.51 0.02,-0.403 0.02,-0.251C0.02,-0.098 0.152,0.01 0.338,0.01ZM0.338,-0.101C0.241,-0.101 0.171,-0.168 0.171,-0.251C0.171,-0.333 0.241,-0.399 0.338,-0.399C0.436,-0.399 0.506,-0.333 0.506,-0.251C0.506,-0.168 0.436,-0.101 0.338,-0.101Z" style="fill-rule:nonzero;"/>
                </g>
                <g transform="matrix(72,0,0,72,49.6365,645.646)">
                    <path d="M0.4,-0.51C0.326,-0.51 0.321,-0.459 0.2,-0.323L0.2,-0.5L0.04,-0.5L0.04,0.2L0.2,0.2L0.2,-0.299C0.242,-0.342 0.314,-0.361 0.383,-0.361C0.5,-0.361 0.557,-0.299 0.557,-0.197C0.557,-0.082 0.491,-0.01 0.385,-0.01C0.335,-0.01 0.284,-0.027 0.241,-0.055L0.233,-0.046C0.276,-0.013 0.341,0.01 0.4,0.01C0.541,0.01 0.668,-0.067 0.668,-0.244C0.668,-0.408 0.56,-0.51 0.4,-0.51Z" style="fill-rule:nonzero;"/>
                </g>
                <g transform="matrix(72,0,0,72,99.3165,645.646)">
                    <path d="M0.517,-0.5L0.517,-0.204C0.476,-0.159 0.403,-0.139 0.339,-0.139C0.247,-0.139 0.186,-0.2 0.186,-0.283C0.186,-0.398 0.256,-0.476 0.355,-0.476C0.392,-0.476 0.432,-0.466 0.475,-0.438L0.482,-0.448C0.439,-0.481 0.383,-0.51 0.301,-0.51C0.174,-0.51 0.047,-0.433 0.047,-0.256C0.047,-0.092 0.155,0.01 0.315,0.01C0.39,0.01 0.394,-0.042 0.517,-0.18L0.517,0.2L0.677,0.2L0.677,-0.5L0.517,-0.5Z" style="fill-rule:nonzero;"/>
                </g>
                <g transform="matrix(72,0,0,72,150.941,645.646)">
                    <path d="M0.544,-0.503C0.486,-0.454 0.393,-0.461 0.344,-0.51C0.266,-0.491 0.184,-0.434 0.184,-0.27L0.168,-0.27C0.168,-0.397 0.209,-0.458 0.254,-0.5L0.04,-0.5L0.04,-0L0.2,-0L0.2,-0.27C0.2,-0.309 0.208,-0.343 0.215,-0.356C0.251,-0.304 0.354,-0.261 0.436,-0.299L0.552,-0.498L0.544,-0.503Z" style="fill-rule:nonzero;"/>
                </g>
                <g transform="matrix(72,0,0,72,190.253,645.646)">
                    <path d="M0,-0.094C0.106,-0.014 0.218,0.01 0.314,0.01C0.458,0.01 0.561,-0.042 0.561,-0.133C0.561,-0.221 0.468,-0.249 0.308,-0.26C0.237,-0.265 0.198,-0.297 0.198,-0.334C0.198,-0.372 0.233,-0.402 0.301,-0.402C0.373,-0.402 0.444,-0.384 0.518,-0.339L0.579,-0.436C0.526,-0.472 0.425,-0.51 0.305,-0.51C0.132,-0.51 0.05,-0.443 0.05,-0.372C0.05,-0.307 0.096,-0.256 0.324,-0.24C0.411,-0.234 0.425,-0.201 0.425,-0.172C0.425,-0.139 0.399,-0.106 0.321,-0.106C0.246,-0.106 0.167,-0.128 0.08,-0.194L0,-0.094Z" style="fill-rule:nonzero;"/>
                </g>
                <g transform="matrix(72,0,0,72,231.653,645.646)">
                    <path d="M-0.035,-0.4L0.064,-0.4L0.064,-0.107C0.064,-0.036 0.117,-0 0.222,-0L0.391,-0L0.391,-0.08L0.277,-0.08C0.236,-0.08 0.224,-0.092 0.224,-0.13L0.224,-0.4L0.367,-0.4L0.367,-0.5L0.202,-0.5L0.202,-0.6L0.188,-0.6C0.188,-0.457 0.138,-0.414 -0.035,-0.414L-0.035,-0.4Z" style="fill-rule:nonzero;"/>
                </g>
                <g transform="matrix(72,0,0,72,260.885,645.646)">
                    <path d="M0.503,-0.26C0.503,-0.125 0.407,-0.03 0.302,-0.03C0.231,-0.03 0.2,-0.071 0.2,-0.183L0.2,-0.5L0.04,-0.5L0.04,-0.155C0.04,-0.009 0.137,0.02 0.203,0.02C0.389,0.02 0.519,-0.103 0.519,-0.26L0.535,-0.26C0.535,-0.121 0.462,-0.037 0.386,-0L0.663,-0L0.663,-0.5L0.503,-0.5L0.503,-0.26Z" style="fill-rule:nonzero;"/>
                </g>
                <g transform="matrix(72,0,0,72,309.341,645.646)">
                    <path d="M0.292,-0.011C0.163,-0.133 0.168,-0.363 0.276,-0.5L0.009,-0.5C0.048,-0.295 0.135,-0.132 0.287,-0L0.433,-0L0.696,-0.5L0.531,-0.5L0.292,-0.011Z" style="fill-rule:nonzero;"/>
                </g>
                <g transform="matrix(72,0,0,72,359.957,645.646)">
                    <path d="M0.485,-0.343L0.465,-0.343L0.4,-0.063L0.194,-0.5L-0.01,-0.5L0.246,-0L0.43,-0L0.414,-0.035L0.475,-0.315L0.534,-0.04L0.515,-0L0.671,-0L0.922,-0.5L0.755,-0.5L0.548,-0.068L0.485,-0.343Z" style="fill-rule:nonzero;"/>
                </g>
                <g transform="matrix(72,0,0,72,425.621,645.646)">
                    <path d="M0.389,-0.187C0.389,-0.199 0.392,-0.211 0.4,-0.223L0.637,-0.5L0.442,-0.5L0.284,-0.316C0.292,-0.335 0.296,-0.355 0.296,-0.376C0.296,-0.445 0.257,-0.5 0.195,-0.5L0.027,-0.5L0.027,-0.38L0.169,-0.38C0.232,-0.38 0.255,-0.346 0.255,-0.317C0.255,-0.297 0.248,-0.274 0.224,-0.246L0.013,-0L0.209,-0L0.352,-0.167C0.347,-0.153 0.344,-0.14 0.344,-0.128C0.344,-0.053 0.405,-0 0.479,-0L0.623,-0L0.623,-0.12L0.478,-0.12C0.431,-0.12 0.389,-0.152 0.389,-0.187Z" style="fill-rule:nonzero;"/>
                </g>
                <g transform="matrix(72,0,0,72,472.421,645.646)">
                    <path d="M0.292,-0.011C0.163,-0.133 0.168,-0.363 0.276,-0.5L0.009,-0.5C0.048,-0.295 0.135,-0.132 0.287,-0C0.222,0.139 0.184,0.171 0.135,0.171C0.172,0.123 0.209,0.086 0.224,0.016L0.026,0.016C0.036,0.139 0.091,0.2 0.187,0.2C0.293,0.2 0.348,0.15 0.433,-0L0.696,-0.5L0.531,-0.5L0.292,-0.011Z" style="fill-rule:nonzero;"/>
                </g>
                <g transform="matrix(72,0,0,72,523.037,645.646)">
                    <path d="M0.015,-0.38L0.397,-0.38L0.099,-0.12L0.015,-0.12L0.015,-0L0.443,-0L0.473,-0.12L0.125,-0.12L0.423,-0.38L0.486,-0.38L0.486,-0.5L0.015,-0.5L0.015,-0.38Z" style="fill-rule:nonzero;"/>
                </g>
            </g>
        </g>
    </g>
</svg>
